
<svg width="1000" height="340" viewBox="0 0 1000 340" xmlns="http://www.w3.org/2000/svg">

<defs>
  <filter id="glow">
    <feGaussianBlur stdDeviation="3" result="blur"/>
    <feMerge>
      <feMergeNode in="blur"/>
      <feMergeNode in="SourceGraphic"/>
    </feMerge>
  </filter>
</defs>

<style>
.title {
  font-family: 'Courier New', 'Lucida Console', monospace;
  font-size: 20px;
  fill: #00FFC6;
  letter-spacing: 3px;
}

.subtitle {
  font-family: 'Courier New', 'Lucida Console', monospace;
  font-size: 12px;
  fill: #85FFC4;
  letter-spacing: 1px;
}

.stat {
  font-family: 'Courier New', 'Lucida Console', monospace;
  font-size: 14px;
  fill: #00FFC6;
  letter-spacing: 1px;
}

.label {
  font-family: 'Courier New', 'Lucida Console', monospace;
  font-size: 10px;
  fill: #85FFC4;
}
</style>

<!-- OUTER -->
<rect x="10" y="10" width="980" height="320" class="box"/>

<!-- INNER -->
<rect x="20" y="20" width="960" height="300" stroke="#00FFC6" stroke-opacity="0.3" fill="none"/>

<!-- TITLE -->
<text x="40" y="60" class="title">LEETCODE SYSTEM</text>
<text x="40" y="80" class="subtitle">Algorithmic Problem Solving Engine</text>

<!-- STATS -->
<rect x="40" y="100" width="400" height="80" class="box"/>

<text x="60" y="130" class="stat">TOTAL: 488</text>

<text x="60" y="155" class="label">EASY</text>
<text x="110" y="155" class="stat">168</text>

<text x="180" y="155" class="label">MEDIUM</text>
<text x="260" y="155" class="stat">274</text>

<text x="350" y="155" class="label">HARD</text>
<text x="410" y="155" class="stat">46</text>

<!-- HEATMAP -->
<rect x="40" y="200" width="920" height="110" class="box"/>
<text x="50" y="220" class="label">ACTIVITY MATRIX</text>

<g transform="translate(50,230)">
<rect x="0" y="0" width="8" height="8" rx="1" fill="#022c22" /><rect x="0" y="10" width="8" height="8" rx="1" fill="#022c22" /><rect x="0" y="20" width="8" height="8" rx="1" fill="#022c22" /><rect x="0" y="30" width="8" height="8" rx="1" fill="#10b981" /><rect x="0" y="40" width="8" height="8" rx="1" fill="#10b981" /><rect x="0" y="50" width="8" height="8" rx="1" fill="#065f46" /><rect x="0" y="60" width="8" height="8" rx="1" fill="#022c22" /><rect x="10" y="0" width="8" height="8" rx="1" fill="#10b981" /><rect x="10" y="10" width="8" height="8" rx="1" fill="#022c22" /><rect x="10" y="20" width="8" height="8" rx="1" fill="#10b981" /><rect x="10" y="30" width="8" height="8" rx="1" fill="#065f46" /><rect x="10" y="40" width="8" height="8" rx="1" fill="#022c22" /><rect x="10" y="50" width="8" height="8" rx="1" fill="#10b981" /><rect x="10" y="60" width="8" height="8" rx="1" fill="#065f46" /><rect x="20" y="0" width="8" height="8" rx="1" fill="#065f46" /><rect x="20" y="10" width="8" height="8" rx="1" fill="#10b981" /><rect x="20" y="20" width="8" height="8" rx="1" fill="#022c22" /><rect x="20" y="30" width="8" height="8" rx="1" fill="#022c22" /><rect x="20" y="40" width="8" height="8" rx="1" fill="#10b981" /><rect x="20" y="50" width="8" height="8" rx="1" fill="#022c22" /><rect x="20" y="60" width="8" height="8" rx="1" fill="#065f46" /><rect x="30" y="0" width="8" height="8" rx="1" fill="#065f46" /><rect x="30" y="10" width="8" height="8" rx="1" fill="#10b981" /><rect x="30" y="20" width="8" height="8" rx="1" fill="#10b981" /><rect x="30" y="30" width="8" height="8" rx="1" fill="#022c22" /><rect x="30" y="40" width="8" height="8" rx="1" fill="#065f46" /><rect x="30" y="50" width="8" height="8" rx="1" fill="#10b981" /><rect x="30" y="60" width="8" height="8" rx="1" fill="#10b981" /><rect x="40" y="0" width="8" height="8" rx="1" fill="#10b981" /><rect x="40" y="10" width="8" height="8" rx="1" fill="#022c22" /><rect x="40" y="20" width="8" height="8" rx="1" fill="#10b981" /><rect x="40" y="30" width="8" height="8" rx="1" fill="#10b981" /><rect x="40" y="40" width="8" height="8" rx="1" fill="#10b981" /><rect x="40" y="50" width="8" height="8" rx="1" fill="#065f46" /><rect x="40" y="60" width="8" height="8" rx="1" fill="#10b981" /><rect x="50" y="0" width="8" height="8" rx="1" fill="#10b981" /><rect x="50" y="10" width="8" height="8" rx="1" fill="#10b981" /><rect x="50" y="20" width="8" height="8" rx="1" fill="#10b981" /><rect x="50" y="30" width="8" height="8" rx="1" fill="#10b981" /><rect x="50" y="40" width="8" height="8" rx="1" fill="#10b981" /><rect x="50" y="50" width="8" height="8" rx="1" fill="#065f46" /><rect x="50" y="60" width="8" height="8" rx="1" fill="#10b981" /><rect x="60" y="0" width="8" height="8" rx="1" fill="#022c22" /><rect x="60" y="10" width="8" height="8" rx="1" fill="#065f46" /><rect x="60" y="20" width="8" height="8" rx="1" fill="#10b981" /><rect x="60" y="30" width="8" height="8" rx="1" fill="#10b981" /><rect x="60" y="40" width="8" height="8" rx="1" fill="#065f46" /><rect x="60" y="50" width="8" height="8" rx="1" fill="#10b981" /><rect x="60" y="60" width="8" height="8" rx="1" fill="#022c22" /><rect x="70" y="0" width="8" height="8" rx="1" fill="#022c22" /><rect x="70" y="10" width="8" height="8" rx="1" fill="#022c22" /><rect x="70" y="20" width="8" height="8" rx="1" fill="#10b981" /><rect x="70" y="30" width="8" height="8" rx="1" fill="#10b981" /><rect x="70" y="40" width="8" height="8" rx="1" fill="#10b981" /><rect x="70" y="50" width="8" height="8" rx="1" fill="#10b981" /><rect x="70" y="60" width="8" height="8" rx="1" fill="#10b981" /><rect x="80" y="0" width="8" height="8" rx="1" fill="#022c22" /><rect x="80" y="10" width="8" height="8" rx="1" fill="#10b981" /><rect x="80" y="20" width="8" height="8" rx="1" fill="#10b981" /><rect x="80" y="30" width="8" height="8" rx="1" fill="#10b981" /><rect x="80" y="40" width="8" height="8" rx="1" fill="#10b981" /><rect x="80" y="50" width="8" height="8" rx="1" fill="#10b981" /><rect x="80" y="60" width="8" height="8" rx="1" fill="#10b981" /><rect x="90" y="0" width="8" height="8" rx="1" fill="#10b981" /><rect x="90" y="10" width="8" height="8" rx="1" fill="#10b981" /><rect x="90" y="20" width="8" height="8" rx="1" fill="#022c22" /><rect x="90" y="30" width="8" height="8" rx="1" fill="#10b981" /><rect x="90" y="40" width="8" height="8" rx="1" fill="#10b981" /><rect x="90" y="50" width="8" height="8" rx="1" fill="#065f46" /><rect x="90" y="60" width="8" height="8" rx="1" fill="#022c22" /><rect x="100" y="0" width="8" height="8" rx="1" fill="#065f46" /><rect x="100" y="10" width="8" height="8" rx="1" fill="#10b981" /><rect x="100" y="20" width="8" height="8" rx="1" fill="#065f46" /><rect x="100" y="30" width="8" height="8" rx="1" fill="#10b981" /><rect x="100" y="40" width="8" height="8" rx="1" fill="#10b981" /><rect x="100" y="50" width="8" height="8" rx="1" fill="#022c22" /><rect x="100" y="60" width="8" height="8" rx="1" fill="#065f46" /><rect x="110" y="0" width="8" height="8" rx="1" fill="#065f46" /><rect x="110" y="10" width="8" height="8" rx="1" fill="#10b981" /><rect x="110" y="20" width="8" height="8" rx="1" fill="#10b981" /><rect x="110" y="30" width="8" height="8" rx="1" fill="#10b981" /><rect x="110" y="40" width="8" height="8" rx="1" fill="#065f46" /><rect x="110" y="50" width="8" height="8" rx="1" fill="#065f46" /><rect x="110" y="60" width="8" height="8" rx="1" fill="#10b981" /><rect x="120" y="0" width="8" height="8" rx="1" fill="#022c22" /><rect x="120" y="10" width="8" height="8" rx="1" fill="#10b981" /><rect x="120" y="20" width="8" height="8" rx="1" fill="#022c22" /><rect x="120" y="30" width="8" height="8" rx="1" fill="#065f46" /><rect x="120" y="40" width="8" height="8" rx="1" fill="#10b981" /><rect x="120" y="50" width="8" height="8" rx="1" fill="#10b981" /><rect x="120" y="60" width="8" height="8" rx="1" fill="#10b981" /><rect x="130" y="0" width="8" height="8" rx="1" fill="#022c22" /><rect x="130" y="10" width="8" height="8" rx="1" fill="#065f46" /><rect x="130" y="20" width="8" height="8" rx="1" fill="#022c22" /><rect x="130" y="30" width="8" height="8" rx="1" fill="#065f46" /><rect x="130" y="40" width="8" height="8" rx="1" fill="#10b981" /><rect x="130" y="50" width="8" height="8" rx="1" fill="#10b981" /><rect x="130" y="60" width="8" height="8" rx="1" fill="#065f46" /><rect x="140" y="0" width="8" height="8" rx="1" fill="#022c22" /><rect x="140" y="10" width="8" height="8" rx="1" fill="#10b981" /><rect x="140" y="20" width="8" height="8" rx="1" fill="#10b981" /><rect x="140" y="30" width="8" height="8" rx="1" fill="#10b981" /><rect x="140" y="40" width="8" height="8" rx="1" fill="#10b981" /><rect x="140" y="50" width="8" height="8" rx="1" fill="#10b981" /><rect x="140" y="60" width="8" height="8" rx="1" fill="#10b981" /><rect x="150" y="0" width="8" height="8" rx="1" fill="#022c22" /><rect x="150" y="10" width="8" height="8" rx="1" fill="#10b981" /><rect x="150" y="20" width="8" height="8" rx="1" fill="#10b981" /><rect x="150" y="30" width="8" height="8" rx="1" fill="#10b981" /><rect x="150" y="40" width="8" height="8" rx="1" fill="#10b981" /><rect x="150" y="50" width="8" height="8" rx="1" fill="#065f46" /><rect x="150" y="60" width="8" height="8" rx="1" fill="#022c22" /><rect x="160" y="0" width="8" height="8" rx="1" fill="#065f46" /><rect x="160" y="10" width="8" height="8" rx="1" fill="#10b981" /><rect x="160" y="20" width="8" height="8" rx="1" fill="#10b981" /><rect x="160" y="30" width="8" height="8" rx="1" fill="#10b981" /><rect x="160" y="40" width="8" height="8" rx="1" fill="#10b981" /><rect x="160" y="50" width="8" height="8" rx="1" fill="#10b981" /><rect x="160" y="60" width="8" height="8" rx="1" fill="#10b981" /><rect x="170" y="0" width="8" height="8" rx="1" fill="#022c22" /><rect x="170" y="10" width="8" height="8" rx="1" fill="#10b981" /><rect x="170" y="20" width="8" height="8" rx="1" fill="#10b981" /><rect x="170" y="30" width="8" height="8" rx="1" fill="#065f46" /><rect x="170" y="40" width="8" height="8" rx="1" fill="#065f46" /><rect x="170" y="50" width="8" height="8" rx="1" fill="#065f46" /><rect x="170" y="60" width="8" height="8" rx="1" fill="#065f46" /><rect x="180" y="0" width="8" height="8" rx="1" fill="#022c22" /><rect x="180" y="10" width="8" height="8" rx="1" fill="#065f46" /><rect x="180" y="20" width="8" height="8" rx="1" fill="#10b981" /><rect x="180" y="30" width="8" height="8" rx="1" fill="#022c22" /><rect x="180" y="40" width="8" height="8" rx="1" fill="#10b981" /><rect x="180" y="50" width="8" height="8" rx="1" fill="#10b981" /><rect x="180" y="60" width="8" height="8" rx="1" fill="#10b981" /><rect x="190" y="0" width="8" height="8" rx="1" fill="#065f46" /><rect x="190" y="10" width="8" height="8" rx="1" fill="#022c22" /><rect x="190" y="20" width="8" height="8" rx="1" fill="#10b981" /><rect x="190" y="30" width="8" height="8" rx="1" fill="#10b981" /><rect x="190" y="40" width="8" height="8" rx="1" fill="#065f46" /><rect x="190" y="50" width="8" height="8" rx="1" fill="#10b981" /><rect x="190" y="60" width="8" height="8" rx="1" fill="#10b981" />
</g>

</svg>
