
<svg width="1000" height="340" viewBox="0 0 1000 340" xmlns="http://www.w3.org/2000/svg">

<defs>
  <filter id="glow">
    <feGaussianBlur stdDeviation="3" result="blur"/>
    <feMerge>
      <feMergeNode in="blur"/>
      <feMergeNode in="SourceGraphic"/>
    </feMerge>
  </filter>
</defs>

<style>
.title {
  font-family: 'Courier New', 'Lucida Console', monospace;
  font-size: 20px;
  fill: #00FFC6;
  letter-spacing: 3px;
}

.subtitle {
  font-family: 'Courier New', 'Lucida Console', monospace;
  font-size: 12px;
  fill: #85FFC4;
  letter-spacing: 1px;
}

.stat {
  font-family: 'Courier New', 'Lucida Console', monospace;
  font-size: 14px;
  fill: #00FFC6;
  letter-spacing: 1px;
}

.label {
  font-family: 'Courier New', 'Lucida Console', monospace;
  font-size: 10px;
  fill: #85FFC4;
}

.box {
  fill: #0d1117;
  stroke: #00FFC6;
  stroke-width: 1px;
  stroke-opacity: 0.3;
  rx: 8px;
}
</style>

<rect x="10" y="10" width="980" height="320" class="box"/>

<rect x="20" y="20" width="960" height="300" stroke="#00FFC6" stroke-opacity="0.3" fill="none" rx="6"/>

<text x="40" y="60" class="title">LEETCODE SYSTEM</text>
<text x="40" y="80" class="subtitle">Algorithmic Problem Solving Engine</text>

<rect x="40" y="100" width="400" height="80" class="box"/>

<text x="60" y="130" class="stat">TOTAL: 488</text>

<text x="60" y="155" class="label">EASY</text>
<text x="110" y="155" class="stat">168</text>

<text x="180" y="155" class="label">MEDIUM</text>
<text x="260" y="155" class="stat">274</text>

<text x="350" y="155" class="label">HARD</text>
<text x="410" y="155" class="stat">46</text>

<rect x="40" y="200" width="920" height="110" class="box"/>
<text x="50" y="220" class="label">ACTIVITY MATRIX</text>

<g transform="translate(50,230)">
<rect x="0" y="0" width="8" height="8" rx="1" fill="#065f46" />
<rect x="0" y="10" width="8" height="8" rx="1" fill="#022c22" />
<rect x="0" y="20" width="8" height="8" rx="1" fill="#10b981" />
<rect x="0" y="30" width="8" height="8" rx="1" fill="#065f46" />
<rect x="0" y="40" width="8" height="8" rx="1" fill="#065f46" />
<rect x="0" y="50" width="8" height="8" rx="1" fill="#022c22" />
<rect x="0" y="60" width="8" height="8" rx="1" fill="#10b981" />
<rect x="10" y="0" width="8" height="8" rx="1" fill="#10b981" />
<rect x="10" y="10" width="8" height="8" rx="1" fill="#10b981" />
<rect x="10" y="20" width="8" height="8" rx="1" fill="#065f46" />
<rect x="10" y="30" width="8" height="8" rx="1" fill="#065f46" />
<rect x="10" y="40" width="8" height="8" rx="1" fill="#10b981" />
<rect x="10" y="50" width="8" height="8" rx="1" fill="#022c22" />
<rect x="10" y="60" width="8" height="8" rx="1" fill="#065f46" />
<rect x="20" y="0" width="8" height="8" rx="1" fill="#10b981" />
<rect x="20" y="10" width="8" height="8" rx="1" fill="#10b981" />
<rect x="20" y="20" width="8" height="8" rx="1" fill="#022c22" />
<rect x="20" y="30" width="8" height="8" rx="1" fill="#065f46" />
<rect x="20" y="40" width="8" height="8" rx="1" fill="#10b981" />
<rect x="20" y="50" width="8" height="8" rx="1" fill="#022c22" />
<rect x="20" y="60" width="8" height="8" rx="1" fill="#10b981" />
<rect x="30" y="0" width="8" height="8" rx="1" fill="#022c22" />
<rect x="30" y="10" width="8" height="8" rx="1" fill="#065f46" />
<rect x="30" y="20" width="8" height="8" rx="1" fill="#022c22" />
<rect x="30" y="30" width="8" height="8" rx="1" fill="#10b981" />
<rect x="30" y="40" width="8" height="8" rx="1" fill="#10b981" />
<rect x="30" y="50" width="8" height="8" rx="1" fill="#10b981" />
<rect x="30" y="60" width="8" height="8" rx="1" fill="#065f46" />
<rect x="40" y="0" width="8" height="8" rx="1" fill="#10b981" />
<rect x="40" y="10" width="8" height="8" rx="1" fill="#10b981" />
<rect x="40" y="20" width="8" height="8" rx="1" fill="#065f46" />
<rect x="40" y="30" width="8" height="8" rx="1" fill="#10b981" />
<rect x="40" y="40" width="8" height="8" rx="1" fill="#065f46" />
<rect x="40" y="50" width="8" height="8" rx="1" fill="#065f46" />
<rect x="40" y="60" width="8" height="8" rx="1" fill="#10b981" />
<rect x="50" y="0" width="8" height="8" rx="1" fill="#022c22" />
<rect x="50" y="10" width="8" height="8" rx="1" fill="#065f46" />
<rect x="50" y="20" width="8" height="8" rx="1" fill="#10b981" />
<rect x="50" y="30" width="8" height="8" rx="1" fill="#065f46" />
<rect x="50" y="40" width="8" height="8" rx="1" fill="#022c22" />
<rect x="50" y="50" width="8" height="8" rx="1" fill="#065f46" />
<rect x="50" y="60" width="8" height="8" rx="1" fill="#065f46" />
<rect x="60" y="0" width="8" height="8" rx="1" fill="#022c22" />
<rect x="60" y="10" width="8" height="8" rx="1" fill="#065f46" />
<rect x="60" y="20" width="8" height="8" rx="1" fill="#022c22" />
<rect x="60" y="30" width="8" height="8" rx="1" fill="#022c22" />
<rect x="60" y="40" width="8" height="8" rx="1" fill="#10b981" />
<rect x="60" y="50" width="8" height="8" rx="1" fill="#10b981" />
<rect x="60" y="60" width="8" height="8" rx="1" fill="#065f46" />
<rect x="70" y="0" width="8" height="8" rx="1" fill="#065f46" />
<rect x="70" y="10" width="8" height="8" rx="1" fill="#065f46" />
<rect x="70" y="20" width="8" height="8" rx="1" fill="#022c22" />
<rect x="70" y="30" width="8" height="8" rx="1" fill="#065f46" />
<rect x="70" y="40" width="8" height="8" rx="1" fill="#065f46" />
<rect x="70" y="50" width="8" height="8" rx="1" fill="#10b981" />
<rect x="70" y="60" width="8" height="8" rx="1" fill="#022c22" />
<rect x="80" y="0" width="8" height="8" rx="1" fill="#10b981" />
<rect x="80" y="10" width="8" height="8" rx="1" fill="#022c22" />
<rect x="80" y="20" width="8" height="8" rx="1" fill="#022c22" />
<rect x="80" y="30" width="8" height="8" rx="1" fill="#10b981" />
<rect x="80" y="40" width="8" height="8" rx="1" fill="#10b981" />
<rect x="80" y="50" width="8" height="8" rx="1" fill="#10b981" />
<rect x="80" y="60" width="8" height="8" rx="1" fill="#10b981" />
<rect x="90" y="0" width="8" height="8" rx="1" fill="#065f46" />
<rect x="90" y="10" width="8" height="8" rx="1" fill="#10b981" />
<rect x="90" y="20" width="8" height="8" rx="1" fill="#022c22" />
<rect x="90" y="30" width="8" height="8" rx="1" fill="#10b981" />
<rect x="90" y="40" width="8" height="8" rx="1" fill="#10b981" />
<rect x="90" y="50" width="8" height="8" rx="1" fill="#022c22" />
<rect x="90" y="60" width="8" height="8" rx="1" fill="#10b981" />
<rect x="100" y="0" width="8" height="8" rx="1" fill="#022c22" />
<rect x="100" y="10" width="8" height="8" rx="1" fill="#065f46" />
<rect x="100" y="20" width="8" height="8" rx="1" fill="#065f46" />
<rect x="100" y="30" width="8" height="8" rx="1" fill="#065f46" />
<rect x="100" y="40" width="8" height="8" rx="1" fill="#10b981" />
<rect x="100" y="50" width="8" height="8" rx="1" fill="#022c22" />
<rect x="100" y="60" width="8" height="8" rx="1" fill="#022c22" />
<rect x="110" y="0" width="8" height="8" rx="1" fill="#10b981" />
<rect x="110" y="10" width="8" height="8" rx="1" fill="#10b981" />
<rect x="110" y="20" width="8" height="8" rx="1" fill="#022c22" />
<rect x="110" y="30" width="8" height="8" rx="1" fill="#10b981" />
<rect x="110" y="40" width="8" height="8" rx="1" fill="#10b981" />
<rect x="110" y="50" width="8" height="8" rx="1" fill="#10b981" />
<rect x="110" y="60" width="8" height="8" rx="1" fill="#022c22" />
<rect x="120" y="0" width="8" height="8" rx="1" fill="#10b981" />
<rect x="120" y="10" width="8" height="8" rx="1" fill="#10b981" />
<rect x="120" y="20" width="8" height="8" rx="1" fill="#10b981" />
<rect x="120" y="30" width="8" height="8" rx="1" fill="#10b981" />
<rect x="120" y="40" width="8" height="8" rx="1" fill="#10b981" />
<rect x="120" y="50" width="8" height="8" rx="1" fill="#10b981" />
<rect x="120" y="60" width="8" height="8" rx="1" fill="#065f46" />
<rect x="130" y="0" width="8" height="8" rx="1" fill="#065f46" />
<rect x="130" y="10" width="8" height="8" rx="1" fill="#10b981" />
<rect x="130" y="20" width="8" height="8" rx="1" fill="#10b981" />
<rect x="130" y="30" width="8" height="8" rx="1" fill="#022c22" />
<rect x="130" y="40" width="8" height="8" rx="1" fill="#065f46" />
<rect x="130" y="50" width="8" height="8" rx="1" fill="#065f46" />
<rect x="130" y="60" width="8" height="8" rx="1" fill="#10b981" />
<rect x="140" y="0" width="8" height="8" rx="1" fill="#022c22" />
<rect x="140" y="10" width="8" height="8" rx="1" fill="#10b981" />
<rect x="140" y="20" width="8" height="8" rx="1" fill="#065f46" />
<rect x="140" y="30" width="8" height="8" rx="1" fill="#10b981" />
<rect x="140" y="40" width="8" height="8" rx="1" fill="#10b981" />
<rect x="140" y="50" width="8" height="8" rx="1" fill="#10b981" />
<rect x="140" y="60" width="8" height="8" rx="1" fill="#065f46" />
<rect x="150" y="0" width="8" height="8" rx="1" fill="#10b981" />
<rect x="150" y="10" width="8" height="8" rx="1" fill="#10b981" />
<rect x="150" y="20" width="8" height="8" rx="1" fill="#065f46" />
<rect x="150" y="30" width="8" height="8" rx="1" fill="#10b981" />
<rect x="150" y="40" width="8" height="8" rx="1" fill="#065f46" />
<rect x="150" y="50" width="8" height="8" rx="1" fill="#065f46" />
<rect x="150" y="60" width="8" height="8" rx="1" fill="#022c22" />
<rect x="160" y="0" width="8" height="8" rx="1" fill="#065f46" />
<rect x="160" y="10" width="8" height="8" rx="1" fill="#065f46" />
<rect x="160" y="20" width="8" height="8" rx="1" fill="#022c22" />
<rect x="160" y="30" width="8" height="8" rx="1" fill="#022c22" />
<rect x="160" y="40" width="8" height="8" rx="1" fill="#065f46" />
<rect x="160" y="50" width="8" height="8" rx="1" fill="#10b981" />
<rect x="160" y="60" width="8" height="8" rx="1" fill="#022c22" />
<rect x="170" y="0" width="8" height="8" rx="1" fill="#022c22" />
<rect x="170" y="10" width="8" height="8" rx="1" fill="#10b981" />
<rect x="170" y="20" width="8" height="8" rx="1" fill="#10b981" />
<rect x="170" y="30" width="8" height="8" rx="1" fill="#10b981" />
<rect x="170" y="40" width="8" height="8" rx="1" fill="#10b981" />
<rect x="170" y="50" width="8" height="8" rx="1" fill="#10b981" />
<rect x="170" y="60" width="8" height="8" rx="1" fill="#10b981" />
<rect x="180" y="0" width="8" height="8" rx="1" fill="#065f46" />
<rect x="180" y="10" width="8" height="8" rx="1" fill="#10b981" />
<rect x="180" y="20" width="8" height="8" rx="1" fill="#10b981" />
<rect x="180" y="30" width="8" height="8" rx="1" fill="#065f46" />
<rect x="180" y="40" width="8" height="8" rx="1" fill="#10b981" />
<rect x="180" y="50" width="8" height="8" rx="1" fill="#022c22" />
<rect x="180" y="60" width="8" height="8" rx="1" fill="#10b981" />
<rect x="190" y="0" width="8" height="8" rx="1" fill="#10b981" />
<rect x="190" y="10" width="8" height="8" rx="1" fill="#022c22" />
<rect x="190" y="20" width="8" height="8" rx="1" fill="#065f46" />
<rect x="190" y="30" width="8" height="8" rx="1" fill="#10b981" />
<rect x="190" y="40" width="8" height="8" rx="1" fill="#065f46" />
<rect x="190" y="50" width="8" height="8" rx="1" fill="#10b981" />
<rect x="190" y="60" width="8" height="8" rx="1" fill="#022c22" />
<rect x="200" y="0" width="8" height="8" rx="1" fill="#10b981" />
<rect x="200" y="10" width="8" height="8" rx="1" fill="#10b981" />
<rect x="200" y="20" width="8" height="8" rx="1" fill="#022c22" />
<rect x="200" y="30" width="8" height="8" rx="1" fill="#065f46" />
<rect x="200" y="40" width="8" height="8" rx="1" fill="#10b981" />
<rect x="200" y="50" width="8" height="8" rx="1" fill="#022c22" />
<rect x="200" y="60" width="8" height="8" rx="1" fill="#065f46" />
<rect x="210" y="0" width="8" height="8" rx="1" fill="#065f46" />
<rect x="210" y="10" width="8" height="8" rx="1" fill="#065f46" />
<rect x="210" y="20" width="8" height="8" rx="1" fill="#10b981" />
<rect x="210" y="30" width="8" height="8" rx="1" fill="#10b981" />
<rect x="210" y="40" width="8" height="8" rx="1" fill="#10b981" />
<rect x="210" y="50" width="8" height="8" rx="1" fill="#10b981" />
<rect x="210" y="60" width="8" height="8" rx="1" fill="#10b981" />
<rect x="220" y="0" width="8" height="8" rx="1" fill="#10b981" />
<rect x="220" y="10" width="8" height="8" rx="1" fill="#022c22" />
<rect x="220" y="20" width="8" height="8" rx="1" fill="#065f46" />
<rect x="220" y="30" width="8" height="8" rx="1" fill="#022c22" />
<rect x="220" y="40" width="8" height="8" rx="1" fill="#10b981" />
<rect x="220" y="50" width="8" height="8" rx="1" fill="#022c22" />
<rect x="220" y="60" width="8" height="8" rx="1" fill="#10b981" />
<rect x="230" y="0" width="8" height="8" rx="1" fill="#10b981" />
<rect x="230" y="10" width="8" height="8" rx="1" fill="#065f46" />
<rect x="230" y="20" width="8" height="8" rx="1" fill="#065f46" />
<rect x="230" y="30" width="8" height="8" rx="1" fill="#022c22" />
<rect x="230" y="40" width="8" height="8" rx="1" fill="#022c22" />
<rect x="230" y="50" width="8" height="8" rx="1" fill="#065f46" />
<rect x="230" y="60" width="8" height="8" rx="1" fill="#10b981" />
<rect x="240" y="0" width="8" height="8" rx="1" fill="#10b981" />
<rect x="240" y="10" width="8" height="8" rx="1" fill="#10b981" />
<rect x="240" y="20" width="8" height="8" rx="1" fill="#10b981" />
<rect x="240" y="30" width="8" height="8" rx="1" fill="#022c22" />
<rect x="240" y="40" width="8" height="8" rx="1" fill="#10b981" />
<rect x="240" y="50" width="8" height="8" rx="1" fill="#022c22" />
<rect x="240" y="60" width="8" height="8" rx="1" fill="#022c22" />
<rect x="250" y="0" width="8" height="8" rx="1" fill="#10b981" />
<rect x="250" y="10" width="8" height="8" rx="1" fill="#10b981" />
<rect x="250" y="20" width="8" height="8" rx="1" fill="#10b981" />
<rect x="250" y="30" width="8" height="8" rx="1" fill="#065f46" />
<rect x="250" y="40" width="8" height="8" rx="1" fill="#10b981" />
<rect x="250" y="50" width="8" height="8" rx="1" fill="#022c22" />
<rect x="250" y="60" width="8" height="8" rx="1" fill="#065f46" />
<rect x="260" y="0" width="8" height="8" rx="1" fill="#065f46" />
<rect x="260" y="10" width="8" height="8" rx="1" fill="#022c22" />
<rect x="260" y="20" width="8" height="8" rx="1" fill="#10b981" />
<rect x="260" y="30" width="8" height="8" rx="1" fill="#022c22" />
<rect x="260" y="40" width="8" height="8" rx="1" fill="#10b981" />
<rect x="260" y="50" width="8" height="8" rx="1" fill="#065f46" />
<rect x="260" y="60" width="8" height="8" rx="1" fill="#10b981" />
<rect x="270" y="0" width="8" height="8" rx="1" fill="#10b981" />
<rect x="270" y="10" width="8" height="8" rx="1" fill="#065f46" />
<rect x="270" y="20" width="8" height="8" rx="1" fill="#065f46" />
<rect x="270" y="30" width="8" height="8" rx="1" fill="#065f46" />
<rect x="270" y="40" width="8" height="8" rx="1" fill="#10b981" />
<rect x="270" y="50" width="8" height="8" rx="1" fill="#10b981" />
<rect x="270" y="60" width="8" height="8" rx="1" fill="#022c22" />
<rect x="280" y="0" width="8" height="8" rx="1" fill="#10b981" />
<rect x="280" y="10" width="8" height="8" rx="1" fill="#10b981" />
<rect x="280" y="20" width="8" height="8" rx="1" fill="#10b981" />
<rect x="280" y="30" width="8" height="8" rx="1" fill="#065f46" />
<rect x="280" y="40" width="8" height="8" rx="1" fill="#10b981" />
<rect x="280" y="50" width="8" height="8" rx="1" fill="#065f46" />
<rect x="280" y="60" width="8" height="8" rx="1" fill="#10b981" />
<rect x="290" y="0" width="8" height="8" rx="1" fill="#022c22" />
<rect x="290" y="10" width="8" height="8" rx="1" fill="#10b981" />
<rect x="290" y="20" width="8" height="8" rx="1" fill="#022c22" />
<rect x="290" y="30" width="8" height="8" rx="1" fill="#022c22" />
<rect x="290" y="40" width="8" height="8" rx="1" fill="#065f46" />
<rect x="290" y="50" width="8" height="8" rx="1" fill="#022c22" />
<rect x="290" y="60" width="8" height="8" rx="1" fill="#10b981" />
<rect x="300" y="0" width="8" height="8" rx="1" fill="#022c22" />
<rect x="300" y="10" width="8" height="8" rx="1" fill="#065f46" />
<rect x="300" y="20" width="8" height="8" rx="1" fill="#10b981" />
<rect x="300" y="30" width="8" height="8" rx="1" fill="#065f46" />
<rect x="300" y="40" width="8" height="8" rx="1" fill="#022c22" />
<rect x="300" y="50" width="8" height="8" rx="1" fill="#10b981" />
<rect x="300" y="60" width="8" height="8" rx="1" fill="#065f46" />
<rect x="310" y="0" width="8" height="8" rx="1" fill="#10b981" />
<rect x="310" y="10" width="8" height="8" rx="1" fill="#022c22" />
<rect x="310" y="20" width="8" height="8" rx="1" fill="#10b981" />
<rect x="310" y="30" width="8" height="8" rx="1" fill="#022c22" />
<rect x="310" y="40" width="8" height="8" rx="1" fill="#10b981" />
<rect x="310" y="50" width="8" height="8" rx="1" fill="#022c22" />
<rect x="310" y="60" width="8" height="8" rx="1" fill="#065f46" />
<rect x="320" y="0" width="8" height="8" rx="1" fill="#065f46" />
<rect x="320" y="10" width="8" height="8" rx="1" fill="#10b981" />
<rect x="320" y="20" width="8" height="8" rx="1" fill="#10b981" />
<rect x="320" y="30" width="8" height="8" rx="1" fill="#10b981" />
<rect x="320" y="40" width="8" height="8" rx="1" fill="#10b981" />
<rect x="320" y="50" width="8" height="8" rx="1" fill="#065f46" />
<rect x="320" y="60" width="8" height="8" rx="1" fill="#022c22" />
<rect x="330" y="0" width="8" height="8" rx="1" fill="#10b981" />
<rect x="330" y="10" width="8" height="8" rx="1" fill="#065f46" />
<rect x="330" y="20" width="8" height="8" rx="1" fill="#022c22" />
<rect x="330" y="30" width="8" height="8" rx="1" fill="#065f46" />
<rect x="330" y="40" width="8" height="8" rx="1" fill="#022c22" />
<rect x="330" y="50" width="8" height="8" rx="1" fill="#022c22" />
<rect x="330" y="60" width="8" height="8" rx="1" fill="#022c22" />
<rect x="340" y="0" width="8" height="8" rx="1" fill="#10b981" />
<rect x="340" y="10" width="8" height="8" rx="1" fill="#10b981" />
<rect x="340" y="20" width="8" height="8" rx="1" fill="#065f46" />
<rect x="340" y="30" width="8" height="8" rx="1" fill="#065f46" />
<rect x="340" y="40" width="8" height="8" rx="1" fill="#022c22" />
<rect x="340" y="50" width="8" height="8" rx="1" fill="#022c22" />
<rect x="340" y="60" width="8" height="8" rx="1" fill="#065f46" />
<rect x="350" y="0" width="8" height="8" rx="1" fill="#065f46" />
<rect x="350" y="10" width="8" height="8" rx="1" fill="#065f46" />
<rect x="350" y="20" width="8" height="8" rx="1" fill="#10b981" />
<rect x="350" y="30" width="8" height="8" rx="1" fill="#10b981" />
<rect x="350" y="40" width="8" height="8" rx="1" fill="#065f46" />
<rect x="350" y="50" width="8" height="8" rx="1" fill="#065f46" />
<rect x="350" y="60" width="8" height="8" rx="1" fill="#10b981" />
<rect x="360" y="0" width="8" height="8" rx="1" fill="#065f46" />
<rect x="360" y="10" width="8" height="8" rx="1" fill="#10b981" />
<rect x="360" y="20" width="8" height="8" rx="1" fill="#065f46" />
<rect x="360" y="30" width="8" height="8" rx="1" fill="#022c22" />
<rect x="360" y="40" width="8" height="8" rx="1" fill="#022c22" />
<rect x="360" y="50" width="8" height="8" rx="1" fill="#022c22" />
<rect x="360" y="60" width="8" height="8" rx="1" fill="#022c22" />
<rect x="370" y="0" width="8" height="8" rx="1" fill="#10b981" />
<rect x="370" y="10" width="8" height="8" rx="1" fill="#10b981" />
<rect x="370" y="20" width="8" height="8" rx="1" fill="#065f46" />
<rect x="370" y="30" width="8" height="8" rx="1" fill="#10b981" />
<rect x="370" y="40" width="8" height="8" rx="1" fill="#065f46" />
<rect x="370" y="50" width="8" height="8" rx="1" fill="#10b981" />
<rect x="370" y="60" width="8" height="8" rx="1" fill="#065f46" />
<rect x="380" y="0" width="8" height="8" rx="1" fill="#022c22" />
<rect x="380" y="10" width="8" height="8" rx="1" fill="#10b981" />
<rect x="380" y="20" width="8" height="8" rx="1" fill="#10b981" />
<rect x="380" y="30" width="8" height="8" rx="1" fill="#022c22" />
<rect x="380" y="40" width="8" height="8" rx="1" fill="#10b981" />
<rect x="380" y="50" width="8" height="8" rx="1" fill="#065f46" />
<rect x="380" y="60" width="8" height="8" rx="1" fill="#022c22" />
<rect x="390" y="0" width="8" height="8" rx="1" fill="#022c22" />
<rect x="390" y="10" width="8" height="8" rx="1" fill="#022c22" />
<rect x="390" y="20" width="8" height="8" rx="1" fill="#10b981" />
<rect x="390" y="30" width="8" height="8" rx="1" fill="#065f46" />
<rect x="390" y="40" width="8" height="8" rx="1" fill="#022c22" />
<rect x="390" y="50" width="8" height="8" rx="1" fill="#022c22" />
<rect x="390" y="60" width="8" height="8" rx="1" fill="#065f46" />
<rect x="400" y="0" width="8" height="8" rx="1" fill="#022c22" />
<rect x="400" y="10" width="8" height="8" rx="1" fill="#022c22" />
<rect x="400" y="20" width="8" height="8" rx="1" fill="#065f46" />
<rect x="400" y="30" width="8" height="8" rx="1" fill="#10b981" />
<rect x="400" y="40" width="8" height="8" rx="1" fill="#10b981" />
<rect x="400" y="50" width="8" height="8" rx="1" fill="#022c22" />
<rect x="400" y="60" width="8" height="8" rx="1" fill="#10b981" />
<rect x="410" y="0" width="8" height="8" rx="1" fill="#10b981" />
<rect x="410" y="10" width="8" height="8" rx="1" fill="#065f46" />
<rect x="410" y="20" width="8" height="8" rx="1" fill="#022c22" />
<rect x="410" y="30" width="8" height="8" rx="1" fill="#10b981" />
<rect x="410" y="40" width="8" height="8" rx="1" fill="#10b981" />
<rect x="410" y="50" width="8" height="8" rx="1" fill="#10b981" />
<rect x="410" y="60" width="8" height="8" rx="1" fill="#022c22" />
<rect x="420" y="0" width="8" height="8" rx="1" fill="#065f46" />
<rect x="420" y="10" width="8" height="8" rx="1" fill="#065f46" />
<rect x="420" y="20" width="8" height="8" rx="1" fill="#022c22" />
<rect x="420" y="30" width="8" height="8" rx="1" fill="#10b981" />
<rect x="420" y="40" width="8" height="8" rx="1" fill="#10b981" />
<rect x="420" y="50" width="8" height="8" rx="1" fill="#065f46" />
<rect x="420" y="60" width="8" height="8" rx="1" fill="#022c22" />
<rect x="430" y="0" width="8" height="8" rx="1" fill="#065f46" />
<rect x="430" y="10" width="8" height="8" rx="1" fill="#10b981" />
<rect x="430" y="20" width="8" height="8" rx="1" fill="#10b981" />
<rect x="430" y="30" width="8" height="8" rx="1" fill="#022c22" />
<rect x="430" y="40" width="8" height="8" rx="1" fill="#022c22" />
<rect x="430" y="50" width="8" height="8" rx="1" fill="#065f46" />
<rect x="430" y="60" width="8" height="8" rx="1" fill="#10b981" />
<rect x="440" y="0" width="8" height="8" rx="1" fill="#022c22" />
<rect x="440" y="10" width="8" height="8" rx="1" fill="#022c22" />
<rect x="440" y="20" width="8" height="8" rx="1" fill="#065f46" />
<rect x="440" y="30" width="8" height="8" rx="1" fill="#022c22" />
<rect x="440" y="40" width="8" height="8" rx="1" fill="#065f46" />
<rect x="440" y="50" width="8" height="8" rx="1" fill="#065f46" />
<rect x="440" y="60" width="8" height="8" rx="1" fill="#10b981" />
<rect x="450" y="0" width="8" height="8" rx="1" fill="#065f46" />
<rect x="450" y="10" width="8" height="8" rx="1" fill="#10b981" />
<rect x="450" y="20" width="8" height="8" rx="1" fill="#065f46" />
<rect x="450" y="30" width="8" height="8" rx="1" fill="#022c22" />
<rect x="450" y="40" width="8" height="8" rx="1" fill="#10b981" />
<rect x="450" y="50" width="8" height="8" rx="1" fill="#10b981" />
<rect x="450" y="60" width="8" height="8" rx="1" fill="#10b981" />
<rect x="460" y="0" width="8" height="8" rx="1" fill="#10b981" />
<rect x="460" y="10" width="8" height="8" rx="1" fill="#10b981" />
<rect x="460" y="20" width="8" height="8" rx="1" fill="#022c22" />
<rect x="460" y="30" width="8" height="8" rx="1" fill="#10b981" />
<rect x="460" y="40" width="8" height="8" rx="1" fill="#10b981" />
<rect x="460" y="50" width="8" height="8" rx="1" fill="#065f46" />
<rect x="460" y="60" width="8" height="8" rx="1" fill="#10b981" />
<rect x="470" y="0" width="8" height="8" rx="1" fill="#022c22" />
<rect x="470" y="10" width="8" height="8" rx="1" fill="#10b981" />
<rect x="470" y="20" width="8" height="8" rx="1" fill="#10b981" />
<rect x="470" y="30" width="8" height="8" rx="1" fill="#10b981" />
<rect x="470" y="40" width="8" height="8" rx="1" fill="#10b981" />
<rect x="470" y="50" width="8" height="8" rx="1" fill="#022c22" />
<rect x="470" y="60" width="8" height="8" rx="1" fill="#10b981" />
<rect x="480" y="0" width="8" height="8" rx="1" fill="#022c22" />
<rect x="480" y="10" width="8" height="8" rx="1" fill="#10b981" />
<rect x="480" y="20" width="8" height="8" rx="1" fill="#022c22" />
<rect x="480" y="30" width="8" height="8" rx="1" fill="#022c22" />
<rect x="480" y="40" width="8" height="8" rx="1" fill="#10b981" />
<rect x="480" y="50" width="8" height="8" rx="1" fill="#065f46" />
<rect x="480" y="60" width="8" height="8" rx="1" fill="#065f46" />
<rect x="490" y="0" width="8" height="8" rx="1" fill="#10b981" />
<rect x="490" y="10" width="8" height="8" rx="1" fill="#022c22" />
<rect x="490" y="20" width="8" height="8" rx="1" fill="#065f46" />
<rect x="490" y="30" width="8" height="8" rx="1" fill="#10b981" />
<rect x="490" y="40" width="8" height="8" rx="1" fill="#10b981" />
<rect x="490" y="50" width="8" height="8" rx="1" fill="#022c22" />
<rect x="490" y="60" width="8" height="8" rx="1" fill="#065f46" />
<rect x="500" y="0" width="8" height="8" rx="1" fill="#10b981" />
<rect x="500" y="10" width="8" height="8" rx="1" fill="#10b981" />
<rect x="500" y="20" width="8" height="8" rx="1" fill="#10b981" />
<rect x="500" y="30" width="8" height="8" rx="1" fill="#10b981" />
<rect x="500" y="40" width="8" height="8" rx="1" fill="#10b981" />
<rect x="500" y="50" width="8" height="8" rx="1" fill="#022c22" />
<rect x="500" y="60" width="8" height="8" rx="1" fill="#065f46" />
<rect x="510" y="0" width="8" height="8" rx="1" fill="#10b981" />
<rect x="510" y="10" width="8" height="8" rx="1" fill="#022c22" />
<rect x="510" y="20" width="8" height="8" rx="1" fill="#022c22" />
<rect x="510" y="30" width="8" height="8" rx="1" fill="#10b981" />
<rect x="510" y="40" width="8" height="8" rx="1" fill="#065f46" />
<rect x="510" y="50" width="8" height="8" rx="1" fill="#10b981" />
<rect x="510" y="60" width="8" height="8" rx="1" fill="#10b981" />

</g>

</svg>
