
<svg width="1000" height="420" viewBox="0 0 1000 420" xmlns="http://www.w3.org/2000/svg">

<style>
  /* FONT */
  .font { font-family: 'Courier New', 'Lucida Console', Monaco, monospace; }
  
  /* NEON UI COLOR SYSTEM */
  .primary { fill: #00FFC6; font-weight: bold; }
  .secondary { fill: #aafad3; }
  .tertiary { fill: #72a7fc; font-weight: bold; }
  
  /* TEXT SIZES */
  .title { font-size: 22px; letter-spacing: 2px; }
  .subtitle { font-size: 12px; letter-spacing: 1px; }
  .section-label { font-size: 14px; letter-spacing: 2px; }
  .stat-label { font-size: 12px; letter-spacing: 1px; }
  .stat-value { font-size: 18px; letter-spacing: 1px; }
  
  /* BOX STYLES */
  .bg { fill: #0A0A0E; } /* Deep terminal background */
  .box-outer { stroke: #00FFC6; stroke-width: 2; fill: none; }
  .box-inner { stroke: #00FFC6; stroke-width: 1; fill: none; stroke-opacity: 0.4; }
  .box-subtle { stroke: #00FFC6; stroke-width: 1; fill: none; stroke-opacity: 0.2; }
</style>

<rect width="1000" height="420" class="bg" rx="10"/>

<rect x="10" y="10" width="980" height="400" class="box-outer" rx="6"/>
<rect x="16" y="16" width="968" height="388" class="box-inner" rx="4"/>

<text x="40" y="55" class="font primary title">LEETCODE SYSTEM</text>
<text x="40" y="75" class="font secondary subtitle">Algorithmic Problem Solving Engine</text>

<rect x="40" y="100" width="920" height="120" class="box-inner" rx="4"/>
<text x="55" y="125" class="font primary section-label">PERFORMANCE METRICS</text>

<rect x="55" y="140" width="180" height="60" class="box-subtle" rx="2"/>
<text x="70" y="165" class="font secondary stat-label">TOTAL SOLVED</text>
<text x="70" y="188" class="font tertiary stat-value">488</text>

<rect x="250" y="140" width="180" height="60" class="box-subtle" rx="2"/>
<text x="265" y="165" class="font secondary stat-label">EASY</text>
<text x="265" y="188" class="font tertiary stat-value">168</text>

<rect x="445" y="140" width="180" height="60" class="box-subtle" rx="2"/>
<text x="460" y="165" class="font secondary stat-label">MEDIUM</text>
<text x="460" y="188" class="font tertiary stat-value">274</text>

<rect x="640" y="140" width="180" height="60" class="box-subtle" rx="2"/>
<text x="655" y="165" class="font secondary stat-label">HARD</text>
<text x="655" y="188" class="font tertiary stat-value">46</text>

<rect x="40" y="240" width="920" height="140" class="box-inner" rx="4"/>
<text x="55" y="265" class="font primary section-label">ACTIVITY MATRIX (LAST 365 DAYS)</text>

<g transform="translate(55, 285)">
  <rect x="0" y="0" width="8" height="8" rx="1" fill="#022c22" />
<rect x="0" y="10" width="8" height="8" rx="1" fill="#022c22" />
<rect x="0" y="20" width="8" height="8" rx="1" fill="#065f46" />
<rect x="0" y="30" width="8" height="8" rx="1" fill="#022c22" />
<rect x="0" y="40" width="8" height="8" rx="1" fill="#022c22" />
<rect x="0" y="50" width="8" height="8" rx="1" fill="#022c22" />
<rect x="0" y="60" width="8" height="8" rx="1" fill="#022c22" />
<rect x="10" y="0" width="8" height="8" rx="1" fill="#022c22" />
<rect x="10" y="10" width="8" height="8" rx="1" fill="#022c22" />
<rect x="10" y="20" width="8" height="8" rx="1" fill="#022c22" />
<rect x="10" y="30" width="8" height="8" rx="1" fill="#022c22" />
<rect x="10" y="40" width="8" height="8" rx="1" fill="#022c22" />
<rect x="10" y="50" width="8" height="8" rx="1" fill="#022c22" />
<rect x="10" y="60" width="8" height="8" rx="1" fill="#022c22" />
<rect x="20" y="0" width="8" height="8" rx="1" fill="#022c22" />
<rect x="20" y="10" width="8" height="8" rx="1" fill="#022c22" />
<rect x="20" y="20" width="8" height="8" rx="1" fill="#022c22" />
<rect x="20" y="30" width="8" height="8" rx="1" fill="#022c22" />
<rect x="20" y="40" width="8" height="8" rx="1" fill="#022c22" />
<rect x="20" y="50" width="8" height="8" rx="1" fill="#022c22" />
<rect x="20" y="60" width="8" height="8" rx="1" fill="#022c22" />
<rect x="30" y="0" width="8" height="8" rx="1" fill="#022c22" />
<rect x="30" y="10" width="8" height="8" rx="1" fill="#022c22" />
<rect x="30" y="20" width="8" height="8" rx="1" fill="#022c22" />
<rect x="30" y="30" width="8" height="8" rx="1" fill="#022c22" />
<rect x="30" y="40" width="8" height="8" rx="1" fill="#022c22" />
<rect x="30" y="50" width="8" height="8" rx="1" fill="#022c22" />
<rect x="30" y="60" width="8" height="8" rx="1" fill="#022c22" />
<rect x="40" y="0" width="8" height="8" rx="1" fill="#022c22" />
<rect x="40" y="10" width="8" height="8" rx="1" fill="#022c22" />
<rect x="40" y="20" width="8" height="8" rx="1" fill="#00FFC6" />
<rect x="40" y="30" width="8" height="8" rx="1" fill="#022c22" />
<rect x="40" y="40" width="8" height="8" rx="1" fill="#022c22" />
<rect x="40" y="50" width="8" height="8" rx="1" fill="#022c22" />
<rect x="40" y="60" width="8" height="8" rx="1" fill="#022c22" />
<rect x="50" y="0" width="8" height="8" rx="1" fill="#022c22" />
<rect x="50" y="10" width="8" height="8" rx="1" fill="#065f46" />
<rect x="50" y="20" width="8" height="8" rx="1" fill="#022c22" />
<rect x="50" y="30" width="8" height="8" rx="1" fill="#022c22" />
<rect x="50" y="40" width="8" height="8" rx="1" fill="#022c22" />
<rect x="50" y="50" width="8" height="8" rx="1" fill="#00FFC6" />
<rect x="50" y="60" width="8" height="8" rx="1" fill="#00FFC6" />
<rect x="60" y="0" width="8" height="8" rx="1" fill="#065f46" />
<rect x="60" y="10" width="8" height="8" rx="1" fill="#022c22" />
<rect x="60" y="20" width="8" height="8" rx="1" fill="#022c22" />
<rect x="60" y="30" width="8" height="8" rx="1" fill="#022c22" />
<rect x="60" y="40" width="8" height="8" rx="1" fill="#022c22" />
<rect x="60" y="50" width="8" height="8" rx="1" fill="#022c22" />
<rect x="60" y="60" width="8" height="8" rx="1" fill="#022c22" />
<rect x="70" y="0" width="8" height="8" rx="1" fill="#022c22" />
<rect x="70" y="10" width="8" height="8" rx="1" fill="#022c22" />
<rect x="70" y="20" width="8" height="8" rx="1" fill="#022c22" />
<rect x="70" y="30" width="8" height="8" rx="1" fill="#022c22" />
<rect x="70" y="40" width="8" height="8" rx="1" fill="#022c22" />
<rect x="70" y="50" width="8" height="8" rx="1" fill="#022c22" />
<rect x="70" y="60" width="8" height="8" rx="1" fill="#022c22" />
<rect x="80" y="0" width="8" height="8" rx="1" fill="#022c22" />
<rect x="80" y="10" width="8" height="8" rx="1" fill="#022c22" />
<rect x="80" y="20" width="8" height="8" rx="1" fill="#022c22" />
<rect x="80" y="30" width="8" height="8" rx="1" fill="#022c22" />
<rect x="80" y="40" width="8" height="8" rx="1" fill="#022c22" />
<rect x="80" y="50" width="8" height="8" rx="1" fill="#022c22" />
<rect x="80" y="60" width="8" height="8" rx="1" fill="#022c22" />
<rect x="90" y="0" width="8" height="8" rx="1" fill="#022c22" />
<rect x="90" y="10" width="8" height="8" rx="1" fill="#022c22" />
<rect x="90" y="20" width="8" height="8" rx="1" fill="#022c22" />
<rect x="90" y="30" width="8" height="8" rx="1" fill="#022c22" />
<rect x="90" y="40" width="8" height="8" rx="1" fill="#022c22" />
<rect x="90" y="50" width="8" height="8" rx="1" fill="#022c22" />
<rect x="90" y="60" width="8" height="8" rx="1" fill="#022c22" />
<rect x="100" y="0" width="8" height="8" rx="1" fill="#022c22" />
<rect x="100" y="10" width="8" height="8" rx="1" fill="#022c22" />
<rect x="100" y="20" width="8" height="8" rx="1" fill="#022c22" />
<rect x="100" y="30" width="8" height="8" rx="1" fill="#022c22" />
<rect x="100" y="40" width="8" height="8" rx="1" fill="#022c22" />
<rect x="100" y="50" width="8" height="8" rx="1" fill="#022c22" />
<rect x="100" y="60" width="8" height="8" rx="1" fill="#022c22" />
<rect x="110" y="0" width="8" height="8" rx="1" fill="#022c22" />
<rect x="110" y="10" width="8" height="8" rx="1" fill="#022c22" />
<rect x="110" y="20" width="8" height="8" rx="1" fill="#022c22" />
<rect x="110" y="30" width="8" height="8" rx="1" fill="#022c22" />
<rect x="110" y="40" width="8" height="8" rx="1" fill="#022c22" />
<rect x="110" y="50" width="8" height="8" rx="1" fill="#022c22" />
<rect x="110" y="60" width="8" height="8" rx="1" fill="#022c22" />
<rect x="120" y="0" width="8" height="8" rx="1" fill="#022c22" />
<rect x="120" y="10" width="8" height="8" rx="1" fill="#022c22" />
<rect x="120" y="20" width="8" height="8" rx="1" fill="#022c22" />
<rect x="120" y="30" width="8" height="8" rx="1" fill="#022c22" />
<rect x="120" y="40" width="8" height="8" rx="1" fill="#022c22" />
<rect x="120" y="50" width="8" height="8" rx="1" fill="#022c22" />
<rect x="120" y="60" width="8" height="8" rx="1" fill="#022c22" />
<rect x="130" y="0" width="8" height="8" rx="1" fill="#022c22" />
<rect x="130" y="10" width="8" height="8" rx="1" fill="#022c22" />
<rect x="130" y="20" width="8" height="8" rx="1" fill="#022c22" />
<rect x="130" y="30" width="8" height="8" rx="1" fill="#022c22" />
<rect x="130" y="40" width="8" height="8" rx="1" fill="#022c22" />
<rect x="130" y="50" width="8" height="8" rx="1" fill="#022c22" />
<rect x="130" y="60" width="8" height="8" rx="1" fill="#022c22" />
<rect x="140" y="0" width="8" height="8" rx="1" fill="#022c22" />
<rect x="140" y="10" width="8" height="8" rx="1" fill="#022c22" />
<rect x="140" y="20" width="8" height="8" rx="1" fill="#022c22" />
<rect x="140" y="30" width="8" height="8" rx="1" fill="#022c22" />
<rect x="140" y="40" width="8" height="8" rx="1" fill="#022c22" />
<rect x="140" y="50" width="8" height="8" rx="1" fill="#022c22" />
<rect x="140" y="60" width="8" height="8" rx="1" fill="#022c22" />
<rect x="150" y="0" width="8" height="8" rx="1" fill="#022c22" />
<rect x="150" y="10" width="8" height="8" rx="1" fill="#022c22" />
<rect x="150" y="20" width="8" height="8" rx="1" fill="#022c22" />
<rect x="150" y="30" width="8" height="8" rx="1" fill="#022c22" />
<rect x="150" y="40" width="8" height="8" rx="1" fill="#022c22" />
<rect x="150" y="50" width="8" height="8" rx="1" fill="#022c22" />
<rect x="150" y="60" width="8" height="8" rx="1" fill="#022c22" />
<rect x="160" y="0" width="8" height="8" rx="1" fill="#022c22" />
<rect x="160" y="10" width="8" height="8" rx="1" fill="#022c22" />
<rect x="160" y="20" width="8" height="8" rx="1" fill="#022c22" />
<rect x="160" y="30" width="8" height="8" rx="1" fill="#022c22" />
<rect x="160" y="40" width="8" height="8" rx="1" fill="#022c22" />
<rect x="160" y="50" width="8" height="8" rx="1" fill="#022c22" />
<rect x="160" y="60" width="8" height="8" rx="1" fill="#022c22" />
<rect x="170" y="0" width="8" height="8" rx="1" fill="#022c22" />
<rect x="170" y="10" width="8" height="8" rx="1" fill="#022c22" />
<rect x="170" y="20" width="8" height="8" rx="1" fill="#022c22" />
<rect x="170" y="30" width="8" height="8" rx="1" fill="#022c22" />
<rect x="170" y="40" width="8" height="8" rx="1" fill="#022c22" />
<rect x="170" y="50" width="8" height="8" rx="1" fill="#022c22" />
<rect x="170" y="60" width="8" height="8" rx="1" fill="#022c22" />
<rect x="180" y="0" width="8" height="8" rx="1" fill="#022c22" />
<rect x="180" y="10" width="8" height="8" rx="1" fill="#022c22" />
<rect x="180" y="20" width="8" height="8" rx="1" fill="#022c22" />
<rect x="180" y="30" width="8" height="8" rx="1" fill="#022c22" />
<rect x="180" y="40" width="8" height="8" rx="1" fill="#022c22" />
<rect x="180" y="50" width="8" height="8" rx="1" fill="#022c22" />
<rect x="180" y="60" width="8" height="8" rx="1" fill="#022c22" />
<rect x="190" y="0" width="8" height="8" rx="1" fill="#022c22" />
<rect x="190" y="10" width="8" height="8" rx="1" fill="#022c22" />
<rect x="190" y="20" width="8" height="8" rx="1" fill="#022c22" />
<rect x="190" y="30" width="8" height="8" rx="1" fill="#022c22" />
<rect x="190" y="40" width="8" height="8" rx="1" fill="#022c22" />
<rect x="190" y="50" width="8" height="8" rx="1" fill="#022c22" />
<rect x="190" y="60" width="8" height="8" rx="1" fill="#022c22" />
<rect x="200" y="0" width="8" height="8" rx="1" fill="#022c22" />
<rect x="200" y="10" width="8" height="8" rx="1" fill="#022c22" />
<rect x="200" y="20" width="8" height="8" rx="1" fill="#022c22" />
<rect x="200" y="30" width="8" height="8" rx="1" fill="#022c22" />
<rect x="200" y="40" width="8" height="8" rx="1" fill="#022c22" />
<rect x="200" y="50" width="8" height="8" rx="1" fill="#022c22" />
<rect x="200" y="60" width="8" height="8" rx="1" fill="#022c22" />
<rect x="210" y="0" width="8" height="8" rx="1" fill="#10b981" />
<rect x="210" y="10" width="8" height="8" rx="1" fill="#10b981" />
<rect x="210" y="20" width="8" height="8" rx="1" fill="#022c22" />
<rect x="210" y="30" width="8" height="8" rx="1" fill="#022c22" />
<rect x="210" y="40" width="8" height="8" rx="1" fill="#022c22" />
<rect x="210" y="50" width="8" height="8" rx="1" fill="#00FFC6" />
<rect x="210" y="60" width="8" height="8" rx="1" fill="#10b981" />
<rect x="220" y="0" width="8" height="8" rx="1" fill="#022c22" />
<rect x="220" y="10" width="8" height="8" rx="1" fill="#10b981" />
<rect x="220" y="20" width="8" height="8" rx="1" fill="#022c22" />
<rect x="220" y="30" width="8" height="8" rx="1" fill="#022c22" />
<rect x="220" y="40" width="8" height="8" rx="1" fill="#022c22" />
<rect x="220" y="50" width="8" height="8" rx="1" fill="#10b981" />
<rect x="220" y="60" width="8" height="8" rx="1" fill="#00FFC6" />
<rect x="230" y="0" width="8" height="8" rx="1" fill="#022c22" />
<rect x="230" y="10" width="8" height="8" rx="1" fill="#00FFC6" />
<rect x="230" y="20" width="8" height="8" rx="1" fill="#00FFC6" />
<rect x="230" y="30" width="8" height="8" rx="1" fill="#00FFC6" />
<rect x="230" y="40" width="8" height="8" rx="1" fill="#10b981" />
<rect x="230" y="50" width="8" height="8" rx="1" fill="#00FFC6" />
<rect x="230" y="60" width="8" height="8" rx="1" fill="#00FFC6" />
<rect x="240" y="0" width="8" height="8" rx="1" fill="#00FFC6" />
<rect x="240" y="10" width="8" height="8" rx="1" fill="#10b981" />
<rect x="240" y="20" width="8" height="8" rx="1" fill="#022c22" />
<rect x="240" y="30" width="8" height="8" rx="1" fill="#065f46" />
<rect x="240" y="40" width="8" height="8" rx="1" fill="#022c22" />
<rect x="240" y="50" width="8" height="8" rx="1" fill="#022c22" />
<rect x="240" y="60" width="8" height="8" rx="1" fill="#022c22" />
<rect x="250" y="0" width="8" height="8" rx="1" fill="#022c22" />
<rect x="250" y="10" width="8" height="8" rx="1" fill="#022c22" />
<rect x="250" y="20" width="8" height="8" rx="1" fill="#022c22" />
<rect x="250" y="30" width="8" height="8" rx="1" fill="#022c22" />
<rect x="250" y="40" width="8" height="8" rx="1" fill="#022c22" />
<rect x="250" y="50" width="8" height="8" rx="1" fill="#022c22" />
<rect x="250" y="60" width="8" height="8" rx="1" fill="#00FFC6" />
<rect x="260" y="0" width="8" height="8" rx="1" fill="#10b981" />
<rect x="260" y="10" width="8" height="8" rx="1" fill="#022c22" />
<rect x="260" y="20" width="8" height="8" rx="1" fill="#022c22" />
<rect x="260" y="30" width="8" height="8" rx="1" fill="#10b981" />
<rect x="260" y="40" width="8" height="8" rx="1" fill="#022c22" />
<rect x="260" y="50" width="8" height="8" rx="1" fill="#00FFC6" />
<rect x="260" y="60" width="8" height="8" rx="1" fill="#10b981" />
<rect x="270" y="0" width="8" height="8" rx="1" fill="#00FFC6" />
<rect x="270" y="10" width="8" height="8" rx="1" fill="#022c22" />
<rect x="270" y="20" width="8" height="8" rx="1" fill="#022c22" />
<rect x="270" y="30" width="8" height="8" rx="1" fill="#065f46" />
<rect x="270" y="40" width="8" height="8" rx="1" fill="#022c22" />
<rect x="270" y="50" width="8" height="8" rx="1" fill="#10b981" />
<rect x="270" y="60" width="8" height="8" rx="1" fill="#10b981" />
<rect x="280" y="0" width="8" height="8" rx="1" fill="#065f46" />
<rect x="280" y="10" width="8" height="8" rx="1" fill="#00FFC6" />
<rect x="280" y="20" width="8" height="8" rx="1" fill="#022c22" />
<rect x="280" y="30" width="8" height="8" rx="1" fill="#10b981" />
<rect x="280" y="40" width="8" height="8" rx="1" fill="#022c22" />
<rect x="280" y="50" width="8" height="8" rx="1" fill="#10b981" />
<rect x="280" y="60" width="8" height="8" rx="1" fill="#10b981" />
<rect x="290" y="0" width="8" height="8" rx="1" fill="#00FFC6" />
<rect x="290" y="10" width="8" height="8" rx="1" fill="#022c22" />
<rect x="290" y="20" width="8" height="8" rx="1" fill="#10b981" />
<rect x="290" y="30" width="8" height="8" rx="1" fill="#10b981" />
<rect x="290" y="40" width="8" height="8" rx="1" fill="#022c22" />
<rect x="290" y="50" width="8" height="8" rx="1" fill="#065f46" />
<rect x="290" y="60" width="8" height="8" rx="1" fill="#10b981" />
<rect x="300" y="0" width="8" height="8" rx="1" fill="#00FFC6" />
<rect x="300" y="10" width="8" height="8" rx="1" fill="#065f46" />
<rect x="300" y="20" width="8" height="8" rx="1" fill="#10b981" />
<rect x="300" y="30" width="8" height="8" rx="1" fill="#065f46" />
<rect x="300" y="40" width="8" height="8" rx="1" fill="#065f46" />
<rect x="300" y="50" width="8" height="8" rx="1" fill="#10b981" />
<rect x="300" y="60" width="8" height="8" rx="1" fill="#10b981" />
<rect x="310" y="0" width="8" height="8" rx="1" fill="#10b981" />
<rect x="310" y="10" width="8" height="8" rx="1" fill="#065f46" />
<rect x="310" y="20" width="8" height="8" rx="1" fill="#022c22" />
<rect x="310" y="30" width="8" height="8" rx="1" fill="#065f46" />
<rect x="310" y="40" width="8" height="8" rx="1" fill="#022c22" />
<rect x="310" y="50" width="8" height="8" rx="1" fill="#065f46" />
<rect x="310" y="60" width="8" height="8" rx="1" fill="#022c22" />
<rect x="320" y="0" width="8" height="8" rx="1" fill="#022c22" />
<rect x="320" y="10" width="8" height="8" rx="1" fill="#065f46" />
<rect x="320" y="20" width="8" height="8" rx="1" fill="#022c22" />
<rect x="320" y="30" width="8" height="8" rx="1" fill="#022c22" />
<rect x="320" y="40" width="8" height="8" rx="1" fill="#065f46" />
<rect x="320" y="50" width="8" height="8" rx="1" fill="#022c22" />
<rect x="320" y="60" width="8" height="8" rx="1" fill="#022c22" />
<rect x="330" y="0" width="8" height="8" rx="1" fill="#022c22" />
<rect x="330" y="10" width="8" height="8" rx="1" fill="#022c22" />
<rect x="330" y="20" width="8" height="8" rx="1" fill="#022c22" />
<rect x="330" y="30" width="8" height="8" rx="1" fill="#022c22" />
<rect x="330" y="40" width="8" height="8" rx="1" fill="#022c22" />
<rect x="330" y="50" width="8" height="8" rx="1" fill="#022c22" />
<rect x="330" y="60" width="8" height="8" rx="1" fill="#022c22" />
<rect x="340" y="0" width="8" height="8" rx="1" fill="#022c22" />
<rect x="340" y="10" width="8" height="8" rx="1" fill="#022c22" />
<rect x="340" y="20" width="8" height="8" rx="1" fill="#022c22" />
<rect x="340" y="30" width="8" height="8" rx="1" fill="#022c22" />
<rect x="340" y="40" width="8" height="8" rx="1" fill="#022c22" />
<rect x="340" y="50" width="8" height="8" rx="1" fill="#10b981" />
<rect x="340" y="60" width="8" height="8" rx="1" fill="#022c22" />
<rect x="350" y="0" width="8" height="8" rx="1" fill="#022c22" />
<rect x="350" y="10" width="8" height="8" rx="1" fill="#022c22" />
<rect x="350" y="20" width="8" height="8" rx="1" fill="#022c22" />
<rect x="350" y="30" width="8" height="8" rx="1" fill="#022c22" />
<rect x="350" y="40" width="8" height="8" rx="1" fill="#022c22" />
<rect x="350" y="50" width="8" height="8" rx="1" fill="#022c22" />
<rect x="350" y="60" width="8" height="8" rx="1" fill="#022c22" />
<rect x="360" y="0" width="8" height="8" rx="1" fill="#022c22" />
<rect x="360" y="10" width="8" height="8" rx="1" fill="#022c22" />
<rect x="360" y="20" width="8" height="8" rx="1" fill="#022c22" />
<rect x="360" y="30" width="8" height="8" rx="1" fill="#022c22" />
<rect x="360" y="40" width="8" height="8" rx="1" fill="#022c22" />
<rect x="360" y="50" width="8" height="8" rx="1" fill="#10b981" />
<rect x="360" y="60" width="8" height="8" rx="1" fill="#10b981" />
<rect x="370" y="0" width="8" height="8" rx="1" fill="#065f46" />
<rect x="370" y="10" width="8" height="8" rx="1" fill="#10b981" />
<rect x="370" y="20" width="8" height="8" rx="1" fill="#022c22" />
<rect x="370" y="30" width="8" height="8" rx="1" fill="#00FFC6" />
<rect x="370" y="40" width="8" height="8" rx="1" fill="#10b981" />
<rect x="370" y="50" width="8" height="8" rx="1" fill="#10b981" />
<rect x="370" y="60" width="8" height="8" rx="1" fill="#022c22" />
<rect x="380" y="0" width="8" height="8" rx="1" fill="#022c22" />
<rect x="380" y="10" width="8" height="8" rx="1" fill="#00FFC6" />
<rect x="380" y="20" width="8" height="8" rx="1" fill="#10b981" />
<rect x="380" y="30" width="8" height="8" rx="1" fill="#00FFC6" />
<rect x="380" y="40" width="8" height="8" rx="1" fill="#065f46" />
<rect x="380" y="50" width="8" height="8" rx="1" fill="#065f46" />
<rect x="380" y="60" width="8" height="8" rx="1" fill="#00FFC6" />
<rect x="390" y="0" width="8" height="8" rx="1" fill="#00FFC6" />
<rect x="390" y="10" width="8" height="8" rx="1" fill="#00FFC6" />
<rect x="390" y="20" width="8" height="8" rx="1" fill="#065f46" />
<rect x="390" y="30" width="8" height="8" rx="1" fill="#00FFC6" />
<rect x="390" y="40" width="8" height="8" rx="1" fill="#00FFC6" />
<rect x="390" y="50" width="8" height="8" rx="1" fill="#00FFC6" />
<rect x="390" y="60" width="8" height="8" rx="1" fill="#00FFC6" />
<rect x="400" y="0" width="8" height="8" rx="1" fill="#00FFC6" />
<rect x="400" y="10" width="8" height="8" rx="1" fill="#00FFC6" />
<rect x="400" y="20" width="8" height="8" rx="1" fill="#065f46" />
<rect x="400" y="30" width="8" height="8" rx="1" fill="#00FFC6" />
<rect x="400" y="40" width="8" height="8" rx="1" fill="#00FFC6" />
<rect x="400" y="50" width="8" height="8" rx="1" fill="#00FFC6" />
<rect x="400" y="60" width="8" height="8" rx="1" fill="#00FFC6" />
<rect x="410" y="0" width="8" height="8" rx="1" fill="#00FFC6" />
<rect x="410" y="10" width="8" height="8" rx="1" fill="#00FFC6" />
<rect x="410" y="20" width="8" height="8" rx="1" fill="#00FFC6" />
<rect x="410" y="30" width="8" height="8" rx="1" fill="#00FFC6" />
<rect x="410" y="40" width="8" height="8" rx="1" fill="#00FFC6" />
<rect x="410" y="50" width="8" height="8" rx="1" fill="#00FFC6" />
<rect x="410" y="60" width="8" height="8" rx="1" fill="#00FFC6" />
<rect x="420" y="0" width="8" height="8" rx="1" fill="#00FFC6" />
<rect x="420" y="10" width="8" height="8" rx="1" fill="#065f46" />
<rect x="420" y="20" width="8" height="8" rx="1" fill="#00FFC6" />
<rect x="420" y="30" width="8" height="8" rx="1" fill="#00FFC6" />
<rect x="420" y="40" width="8" height="8" rx="1" fill="#065f46" />
<rect x="420" y="50" width="8" height="8" rx="1" fill="#00FFC6" />
<rect x="420" y="60" width="8" height="8" rx="1" fill="#00FFC6" />
<rect x="430" y="0" width="8" height="8" rx="1" fill="#00FFC6" />
<rect x="430" y="10" width="8" height="8" rx="1" fill="#10b981" />
<rect x="430" y="20" width="8" height="8" rx="1" fill="#065f46" />
<rect x="430" y="30" width="8" height="8" rx="1" fill="#00FFC6" />
<rect x="430" y="40" width="8" height="8" rx="1" fill="#10b981" />
<rect x="430" y="50" width="8" height="8" rx="1" fill="#065f46" />
<rect x="430" y="60" width="8" height="8" rx="1" fill="#00FFC6" />
<rect x="440" y="0" width="8" height="8" rx="1" fill="#00FFC6" />
<rect x="440" y="10" width="8" height="8" rx="1" fill="#10b981" />
<rect x="440" y="20" width="8" height="8" rx="1" fill="#10b981" />
<rect x="440" y="30" width="8" height="8" rx="1" fill="#00FFC6" />
<rect x="440" y="40" width="8" height="8" rx="1" fill="#10b981" />
<rect x="440" y="50" width="8" height="8" rx="1" fill="#00FFC6" />
<rect x="440" y="60" width="8" height="8" rx="1" fill="#00FFC6" />
<rect x="450" y="0" width="8" height="8" rx="1" fill="#10b981" />
<rect x="450" y="10" width="8" height="8" rx="1" fill="#10b981" />
<rect x="450" y="20" width="8" height="8" rx="1" fill="#00FFC6" />
<rect x="450" y="30" width="8" height="8" rx="1" fill="#065f46" />
<rect x="450" y="40" width="8" height="8" rx="1" fill="#00FFC6" />
<rect x="450" y="50" width="8" height="8" rx="1" fill="#10b981" />
<rect x="450" y="60" width="8" height="8" rx="1" fill="#00FFC6" />
<rect x="460" y="0" width="8" height="8" rx="1" fill="#065f46" />
<rect x="460" y="10" width="8" height="8" rx="1" fill="#00FFC6" />
<rect x="460" y="20" width="8" height="8" rx="1" fill="#10b981" />
<rect x="460" y="30" width="8" height="8" rx="1" fill="#10b981" />
<rect x="460" y="40" width="8" height="8" rx="1" fill="#10b981" />
<rect x="460" y="50" width="8" height="8" rx="1" fill="#065f46" />
<rect x="460" y="60" width="8" height="8" rx="1" fill="#00FFC6" />
<rect x="470" y="0" width="8" height="8" rx="1" fill="#10b981" />
<rect x="470" y="10" width="8" height="8" rx="1" fill="#10b981" />
<rect x="470" y="20" width="8" height="8" rx="1" fill="#00FFC6" />
<rect x="470" y="30" width="8" height="8" rx="1" fill="#10b981" />
<rect x="470" y="40" width="8" height="8" rx="1" fill="#065f46" />
<rect x="470" y="50" width="8" height="8" rx="1" fill="#00FFC6" />
<rect x="470" y="60" width="8" height="8" rx="1" fill="#065f46" />
<rect x="480" y="0" width="8" height="8" rx="1" fill="#10b981" />
<rect x="480" y="10" width="8" height="8" rx="1" fill="#10b981" />
<rect x="480" y="20" width="8" height="8" rx="1" fill="#10b981" />
<rect x="480" y="30" width="8" height="8" rx="1" fill="#065f46" />
<rect x="480" y="40" width="8" height="8" rx="1" fill="#065f46" />
<rect x="480" y="50" width="8" height="8" rx="1" fill="#10b981" />
<rect x="480" y="60" width="8" height="8" rx="1" fill="#065f46" />
<rect x="490" y="0" width="8" height="8" rx="1" fill="#065f46" />
<rect x="490" y="10" width="8" height="8" rx="1" fill="#065f46" />
<rect x="490" y="20" width="8" height="8" rx="1" fill="#10b981" />
<rect x="490" y="30" width="8" height="8" rx="1" fill="#022c22" />
<rect x="490" y="40" width="8" height="8" rx="1" fill="#10b981" />
<rect x="490" y="50" width="8" height="8" rx="1" fill="#065f46" />
<rect x="490" y="60" width="8" height="8" rx="1" fill="#10b981" />
<rect x="500" y="0" width="8" height="8" rx="1" fill="#10b981" />
<rect x="500" y="10" width="8" height="8" rx="1" fill="#065f46" />
<rect x="500" y="20" width="8" height="8" rx="1" fill="#065f46" />
<rect x="500" y="30" width="8" height="8" rx="1" fill="#065f46" />
<rect x="500" y="40" width="8" height="8" rx="1" fill="#065f46" />
<rect x="500" y="50" width="8" height="8" rx="1" fill="#022c22" />
<rect x="500" y="60" width="8" height="8" rx="1" fill="#065f46" />
<rect x="510" y="0" width="8" height="8" rx="1" fill="#022c22" />
<rect x="510" y="10" width="8" height="8" rx="1" fill="#10b981" />
<rect x="510" y="20" width="8" height="8" rx="1" fill="#10b981" />
<rect x="510" y="30" width="8" height="8" rx="1" fill="#10b981" />
<rect x="510" y="40" width="8" height="8" rx="1" fill="#065f46" />
<rect x="510" y="50" width="8" height="8" rx="1" fill="#00FFC6" />
<rect x="510" y="60" width="8" height="8" rx="1" fill="#10b981" />

</g>

</svg>
