
<svg width="1000" height="460" viewBox="0 0 1000 460" xmlns="http://www.w3.org/2000/svg">

<style>
  /* FONT */
  .font { font-family: 'Courier New', 'Lucida Console', Monaco, monospace; }
  
  /* NEON UI COLOR SYSTEM */
  .primary { fill: #00FFC6; font-weight: bold; }
  .secondary { fill: #aafad3; }
  .tertiary { fill: #72a7fc; font-weight: bold; }
  
  /* TEXT SIZES */
  .title { font-size: 22px; letter-spacing: 2px; }
  .subtitle { font-size: 12px; letter-spacing: 1px; }
  .section-label { font-size: 14px; letter-spacing: 2px; }
  .stat-label { font-size: 12px; letter-spacing: 1px; }
  .stat-value { font-size: 20px; letter-spacing: 1px; }
  
  /* BOX STYLES */
  .bg { fill: #0A0A0E; }
  .box-outer { stroke: #00FFC6; stroke-width: 2; fill: none; }
  .box-inner { stroke: #00FFC6; stroke-width: 1; fill: none; stroke-opacity: 0.4; }
  .box-subtle { stroke: #00FFC6; stroke-width: 1; fill: none; stroke-opacity: 0.2; }
</style>

<rect width="1000" height="460" class="bg" rx="10"/>

<rect x="10" y="10" width="980" height="440" class="box-outer" rx="6"/>
<rect x="16" y="16" width="968" height="428" class="box-inner" rx="4"/>

<text x="40" y="55" class="font primary title">LEETCODE TRACKER</text>
<text x="40" y="75" class="font secondary subtitle">LeetCode Stats for gauravmishraokok</text>

<rect x="40" y="100" width="440" height="140" class="box-inner" rx="4"/>
<text x="55" y="125" class="font primary section-label">PROBLEM SOLVING</text>

<rect x="55" y="140" width="195" height="40" class="box-subtle" rx="2"/>
<text x="65" y="165" class="font secondary stat-label">TOTAL</text>
<text x="120" y="166" class="font tertiary stat-value">503</text>

<rect x="265" y="140" width="195" height="40" class="box-subtle" rx="2"/>
<text x="275" y="165" class="font secondary stat-label">EASY</text>
<text x="320" y="166" class="font tertiary stat-value">175</text>

<rect x="55" y="185" width="195" height="40" class="box-subtle" rx="2"/>
<text x="65" y="210" class="font secondary stat-label">MEDIUM</text>
<text x="120" y="211" class="font tertiary stat-value">282</text>

<rect x="265" y="185" width="195" height="40" class="box-subtle" rx="2"/>
<text x="275" y="210" class="font secondary stat-label">HARD</text>
<text x="320" y="211" class="font tertiary stat-value">46</text>

<rect x="520" y="100" width="440" height="140" class="box-inner" rx="4"/>
<text x="535" y="125" class="font primary section-label">CONTEST METRICS</text>

<rect x="535" y="140" width="195" height="40" class="box-subtle" rx="2"/>
<text x="545" y="165" class="font secondary stat-label">RATING</text>
<text x="610" y="166" class="font tertiary stat-value">1729</text>

<rect x="745" y="140" width="195" height="40" class="box-subtle" rx="2"/>
<text x="755" y="165" class="font secondary stat-label">RANK</text>
<text x="800" y="166" class="font tertiary stat-value">97469</text>

<rect x="535" y="185" width="195" height="40" class="box-subtle" rx="2"/>
<text x="545" y="210" class="font secondary stat-label">ATTENDED</text>
<text x="620" y="211" class="font tertiary stat-value">6</text>

<rect x="745" y="185" width="195" height="40" class="box-subtle" rx="2"/>
<text x="755" y="210" class="font secondary stat-label">TOP %</text>
<text x="810" y="211" class="font tertiary stat-value">11.39%</text>

<rect x="40" y="260" width="920" height="165" class="box-inner" rx="4"/>
<text x="55" y="285" class="font primary section-label">ACTIVITY MATRIX (LAST 365 DAYS)</text>

<g transform="translate(60, 305)">
  <rect x="0" y="0" width="11" height="11" rx="2" fill="#022c22" />
<rect x="0" y="15" width="11" height="11" rx="2" fill="#022c22" />
<rect x="0" y="30" width="11" height="11" rx="2" fill="#022c22" />
<rect x="0" y="45" width="11" height="11" rx="2" fill="#022c22" />
<rect x="0" y="60" width="11" height="11" rx="2" fill="#022c22" />
<rect x="0" y="75" width="11" height="11" rx="2" fill="#022c22" />
<rect x="0" y="90" width="11" height="11" rx="2" fill="#022c22" />
<rect x="15" y="0" width="11" height="11" rx="2" fill="#022c22" />
<rect x="15" y="15" width="11" height="11" rx="2" fill="#022c22" />
<rect x="15" y="30" width="11" height="11" rx="2" fill="#022c22" />
<rect x="15" y="45" width="11" height="11" rx="2" fill="#022c22" />
<rect x="15" y="60" width="11" height="11" rx="2" fill="#022c22" />
<rect x="15" y="75" width="11" height="11" rx="2" fill="#00FFC6" />
<rect x="15" y="90" width="11" height="11" rx="2" fill="#022c22" />
<rect x="30" y="0" width="11" height="11" rx="2" fill="#022c22" />
<rect x="30" y="15" width="11" height="11" rx="2" fill="#022c22" />
<rect x="30" y="30" width="11" height="11" rx="2" fill="#022c22" />
<rect x="30" y="45" width="11" height="11" rx="2" fill="#022c22" />
<rect x="30" y="60" width="11" height="11" rx="2" fill="#065f46" />
<rect x="30" y="75" width="11" height="11" rx="2" fill="#022c22" />
<rect x="30" y="90" width="11" height="11" rx="2" fill="#022c22" />
<rect x="45" y="0" width="11" height="11" rx="2" fill="#022c22" />
<rect x="45" y="15" width="11" height="11" rx="2" fill="#00FFC6" />
<rect x="45" y="30" width="11" height="11" rx="2" fill="#00FFC6" />
<rect x="45" y="45" width="11" height="11" rx="2" fill="#065f46" />
<rect x="45" y="60" width="11" height="11" rx="2" fill="#022c22" />
<rect x="45" y="75" width="11" height="11" rx="2" fill="#022c22" />
<rect x="45" y="90" width="11" height="11" rx="2" fill="#022c22" />
<rect x="60" y="0" width="11" height="11" rx="2" fill="#022c22" />
<rect x="60" y="15" width="11" height="11" rx="2" fill="#022c22" />
<rect x="60" y="30" width="11" height="11" rx="2" fill="#022c22" />
<rect x="60" y="45" width="11" height="11" rx="2" fill="#022c22" />
<rect x="60" y="60" width="11" height="11" rx="2" fill="#022c22" />
<rect x="60" y="75" width="11" height="11" rx="2" fill="#022c22" />
<rect x="60" y="90" width="11" height="11" rx="2" fill="#022c22" />
<rect x="75" y="0" width="11" height="11" rx="2" fill="#022c22" />
<rect x="75" y="15" width="11" height="11" rx="2" fill="#022c22" />
<rect x="75" y="30" width="11" height="11" rx="2" fill="#022c22" />
<rect x="75" y="45" width="11" height="11" rx="2" fill="#022c22" />
<rect x="75" y="60" width="11" height="11" rx="2" fill="#022c22" />
<rect x="75" y="75" width="11" height="11" rx="2" fill="#022c22" />
<rect x="75" y="90" width="11" height="11" rx="2" fill="#022c22" />
<rect x="90" y="0" width="11" height="11" rx="2" fill="#022c22" />
<rect x="90" y="15" width="11" height="11" rx="2" fill="#022c22" />
<rect x="90" y="30" width="11" height="11" rx="2" fill="#022c22" />
<rect x="90" y="45" width="11" height="11" rx="2" fill="#022c22" />
<rect x="90" y="60" width="11" height="11" rx="2" fill="#022c22" />
<rect x="90" y="75" width="11" height="11" rx="2" fill="#022c22" />
<rect x="90" y="90" width="11" height="11" rx="2" fill="#022c22" />
<rect x="105" y="0" width="11" height="11" rx="2" fill="#022c22" />
<rect x="105" y="15" width="11" height="11" rx="2" fill="#022c22" />
<rect x="105" y="30" width="11" height="11" rx="2" fill="#022c22" />
<rect x="105" y="45" width="11" height="11" rx="2" fill="#022c22" />
<rect x="105" y="60" width="11" height="11" rx="2" fill="#022c22" />
<rect x="105" y="75" width="11" height="11" rx="2" fill="#022c22" />
<rect x="105" y="90" width="11" height="11" rx="2" fill="#022c22" />
<rect x="120" y="0" width="11" height="11" rx="2" fill="#022c22" />
<rect x="120" y="15" width="11" height="11" rx="2" fill="#022c22" />
<rect x="120" y="30" width="11" height="11" rx="2" fill="#022c22" />
<rect x="120" y="45" width="11" height="11" rx="2" fill="#022c22" />
<rect x="120" y="60" width="11" height="11" rx="2" fill="#022c22" />
<rect x="120" y="75" width="11" height="11" rx="2" fill="#022c22" />
<rect x="120" y="90" width="11" height="11" rx="2" fill="#022c22" />
<rect x="135" y="0" width="11" height="11" rx="2" fill="#022c22" />
<rect x="135" y="15" width="11" height="11" rx="2" fill="#022c22" />
<rect x="135" y="30" width="11" height="11" rx="2" fill="#022c22" />
<rect x="135" y="45" width="11" height="11" rx="2" fill="#022c22" />
<rect x="135" y="60" width="11" height="11" rx="2" fill="#022c22" />
<rect x="135" y="75" width="11" height="11" rx="2" fill="#022c22" />
<rect x="135" y="90" width="11" height="11" rx="2" fill="#022c22" />
<rect x="150" y="0" width="11" height="11" rx="2" fill="#022c22" />
<rect x="150" y="15" width="11" height="11" rx="2" fill="#022c22" />
<rect x="150" y="30" width="11" height="11" rx="2" fill="#022c22" />
<rect x="150" y="45" width="11" height="11" rx="2" fill="#022c22" />
<rect x="150" y="60" width="11" height="11" rx="2" fill="#022c22" />
<rect x="150" y="75" width="11" height="11" rx="2" fill="#022c22" />
<rect x="150" y="90" width="11" height="11" rx="2" fill="#022c22" />
<rect x="165" y="0" width="11" height="11" rx="2" fill="#022c22" />
<rect x="165" y="15" width="11" height="11" rx="2" fill="#022c22" />
<rect x="165" y="30" width="11" height="11" rx="2" fill="#022c22" />
<rect x="165" y="45" width="11" height="11" rx="2" fill="#022c22" />
<rect x="165" y="60" width="11" height="11" rx="2" fill="#022c22" />
<rect x="165" y="75" width="11" height="11" rx="2" fill="#022c22" />
<rect x="165" y="90" width="11" height="11" rx="2" fill="#022c22" />
<rect x="180" y="0" width="11" height="11" rx="2" fill="#022c22" />
<rect x="180" y="15" width="11" height="11" rx="2" fill="#022c22" />
<rect x="180" y="30" width="11" height="11" rx="2" fill="#022c22" />
<rect x="180" y="45" width="11" height="11" rx="2" fill="#022c22" />
<rect x="180" y="60" width="11" height="11" rx="2" fill="#022c22" />
<rect x="180" y="75" width="11" height="11" rx="2" fill="#022c22" />
<rect x="180" y="90" width="11" height="11" rx="2" fill="#022c22" />
<rect x="195" y="0" width="11" height="11" rx="2" fill="#022c22" />
<rect x="195" y="15" width="11" height="11" rx="2" fill="#022c22" />
<rect x="195" y="30" width="11" height="11" rx="2" fill="#022c22" />
<rect x="195" y="45" width="11" height="11" rx="2" fill="#022c22" />
<rect x="195" y="60" width="11" height="11" rx="2" fill="#022c22" />
<rect x="195" y="75" width="11" height="11" rx="2" fill="#022c22" />
<rect x="195" y="90" width="11" height="11" rx="2" fill="#022c22" />
<rect x="210" y="0" width="11" height="11" rx="2" fill="#022c22" />
<rect x="210" y="15" width="11" height="11" rx="2" fill="#022c22" />
<rect x="210" y="30" width="11" height="11" rx="2" fill="#022c22" />
<rect x="210" y="45" width="11" height="11" rx="2" fill="#022c22" />
<rect x="210" y="60" width="11" height="11" rx="2" fill="#022c22" />
<rect x="210" y="75" width="11" height="11" rx="2" fill="#022c22" />
<rect x="210" y="90" width="11" height="11" rx="2" fill="#022c22" />
<rect x="225" y="0" width="11" height="11" rx="2" fill="#022c22" />
<rect x="225" y="15" width="11" height="11" rx="2" fill="#022c22" />
<rect x="225" y="30" width="11" height="11" rx="2" fill="#022c22" />
<rect x="225" y="45" width="11" height="11" rx="2" fill="#022c22" />
<rect x="225" y="60" width="11" height="11" rx="2" fill="#022c22" />
<rect x="225" y="75" width="11" height="11" rx="2" fill="#022c22" />
<rect x="225" y="90" width="11" height="11" rx="2" fill="#022c22" />
<rect x="240" y="0" width="11" height="11" rx="2" fill="#022c22" />
<rect x="240" y="15" width="11" height="11" rx="2" fill="#022c22" />
<rect x="240" y="30" width="11" height="11" rx="2" fill="#022c22" />
<rect x="240" y="45" width="11" height="11" rx="2" fill="#022c22" />
<rect x="240" y="60" width="11" height="11" rx="2" fill="#022c22" />
<rect x="240" y="75" width="11" height="11" rx="2" fill="#022c22" />
<rect x="240" y="90" width="11" height="11" rx="2" fill="#022c22" />
<rect x="255" y="0" width="11" height="11" rx="2" fill="#022c22" />
<rect x="255" y="15" width="11" height="11" rx="2" fill="#022c22" />
<rect x="255" y="30" width="11" height="11" rx="2" fill="#022c22" />
<rect x="255" y="45" width="11" height="11" rx="2" fill="#022c22" />
<rect x="255" y="60" width="11" height="11" rx="2" fill="#022c22" />
<rect x="255" y="75" width="11" height="11" rx="2" fill="#022c22" />
<rect x="255" y="90" width="11" height="11" rx="2" fill="#022c22" />
<rect x="270" y="0" width="11" height="11" rx="2" fill="#022c22" />
<rect x="270" y="15" width="11" height="11" rx="2" fill="#022c22" />
<rect x="270" y="30" width="11" height="11" rx="2" fill="#022c22" />
<rect x="270" y="45" width="11" height="11" rx="2" fill="#10b981" />
<rect x="270" y="60" width="11" height="11" rx="2" fill="#10b981" />
<rect x="270" y="75" width="11" height="11" rx="2" fill="#022c22" />
<rect x="270" y="90" width="11" height="11" rx="2" fill="#022c22" />
<rect x="285" y="0" width="11" height="11" rx="2" fill="#022c22" />
<rect x="285" y="15" width="11" height="11" rx="2" fill="#00FFC6" />
<rect x="285" y="30" width="11" height="11" rx="2" fill="#10b981" />
<rect x="285" y="45" width="11" height="11" rx="2" fill="#022c22" />
<rect x="285" y="60" width="11" height="11" rx="2" fill="#10b981" />
<rect x="285" y="75" width="11" height="11" rx="2" fill="#022c22" />
<rect x="285" y="90" width="11" height="11" rx="2" fill="#022c22" />
<rect x="300" y="0" width="11" height="11" rx="2" fill="#022c22" />
<rect x="300" y="15" width="11" height="11" rx="2" fill="#10b981" />
<rect x="300" y="30" width="11" height="11" rx="2" fill="#00FFC6" />
<rect x="300" y="45" width="11" height="11" rx="2" fill="#022c22" />
<rect x="300" y="60" width="11" height="11" rx="2" fill="#00FFC6" />
<rect x="300" y="75" width="11" height="11" rx="2" fill="#00FFC6" />
<rect x="300" y="90" width="11" height="11" rx="2" fill="#00FFC6" />
<rect x="315" y="0" width="11" height="11" rx="2" fill="#10b981" />
<rect x="315" y="15" width="11" height="11" rx="2" fill="#00FFC6" />
<rect x="315" y="30" width="11" height="11" rx="2" fill="#00FFC6" />
<rect x="315" y="45" width="11" height="11" rx="2" fill="#00FFC6" />
<rect x="315" y="60" width="11" height="11" rx="2" fill="#10b981" />
<rect x="315" y="75" width="11" height="11" rx="2" fill="#022c22" />
<rect x="315" y="90" width="11" height="11" rx="2" fill="#065f46" />
<rect x="330" y="0" width="11" height="11" rx="2" fill="#022c22" />
<rect x="330" y="15" width="11" height="11" rx="2" fill="#022c22" />
<rect x="330" y="30" width="11" height="11" rx="2" fill="#022c22" />
<rect x="330" y="45" width="11" height="11" rx="2" fill="#022c22" />
<rect x="330" y="60" width="11" height="11" rx="2" fill="#022c22" />
<rect x="330" y="75" width="11" height="11" rx="2" fill="#022c22" />
<rect x="330" y="90" width="11" height="11" rx="2" fill="#022c22" />
<rect x="345" y="0" width="11" height="11" rx="2" fill="#022c22" />
<rect x="345" y="15" width="11" height="11" rx="2" fill="#022c22" />
<rect x="345" y="30" width="11" height="11" rx="2" fill="#00FFC6" />
<rect x="345" y="45" width="11" height="11" rx="2" fill="#10b981" />
<rect x="345" y="60" width="11" height="11" rx="2" fill="#022c22" />
<rect x="345" y="75" width="11" height="11" rx="2" fill="#022c22" />
<rect x="345" y="90" width="11" height="11" rx="2" fill="#10b981" />
<rect x="360" y="0" width="11" height="11" rx="2" fill="#022c22" />
<rect x="360" y="15" width="11" height="11" rx="2" fill="#00FFC6" />
<rect x="360" y="30" width="11" height="11" rx="2" fill="#10b981" />
<rect x="360" y="45" width="11" height="11" rx="2" fill="#00FFC6" />
<rect x="360" y="60" width="11" height="11" rx="2" fill="#022c22" />
<rect x="360" y="75" width="11" height="11" rx="2" fill="#022c22" />
<rect x="360" y="90" width="11" height="11" rx="2" fill="#065f46" />
<rect x="375" y="0" width="11" height="11" rx="2" fill="#022c22" />
<rect x="375" y="15" width="11" height="11" rx="2" fill="#10b981" />
<rect x="375" y="30" width="11" height="11" rx="2" fill="#10b981" />
<rect x="375" y="45" width="11" height="11" rx="2" fill="#065f46" />
<rect x="375" y="60" width="11" height="11" rx="2" fill="#00FFC6" />
<rect x="375" y="75" width="11" height="11" rx="2" fill="#022c22" />
<rect x="375" y="90" width="11" height="11" rx="2" fill="#10b981" />
<rect x="390" y="0" width="11" height="11" rx="2" fill="#022c22" />
<rect x="390" y="15" width="11" height="11" rx="2" fill="#10b981" />
<rect x="390" y="30" width="11" height="11" rx="2" fill="#10b981" />
<rect x="390" y="45" width="11" height="11" rx="2" fill="#00FFC6" />
<rect x="390" y="60" width="11" height="11" rx="2" fill="#022c22" />
<rect x="390" y="75" width="11" height="11" rx="2" fill="#10b981" />
<rect x="390" y="90" width="11" height="11" rx="2" fill="#10b981" />
<rect x="405" y="0" width="11" height="11" rx="2" fill="#022c22" />
<rect x="405" y="15" width="11" height="11" rx="2" fill="#065f46" />
<rect x="405" y="30" width="11" height="11" rx="2" fill="#10b981" />
<rect x="405" y="45" width="11" height="11" rx="2" fill="#00FFC6" />
<rect x="405" y="60" width="11" height="11" rx="2" fill="#065f46" />
<rect x="405" y="75" width="11" height="11" rx="2" fill="#10b981" />
<rect x="405" y="90" width="11" height="11" rx="2" fill="#065f46" />
<rect x="420" y="0" width="11" height="11" rx="2" fill="#065f46" />
<rect x="420" y="15" width="11" height="11" rx="2" fill="#10b981" />
<rect x="420" y="30" width="11" height="11" rx="2" fill="#10b981" />
<rect x="420" y="45" width="11" height="11" rx="2" fill="#10b981" />
<rect x="420" y="60" width="11" height="11" rx="2" fill="#065f46" />
<rect x="420" y="75" width="11" height="11" rx="2" fill="#022c22" />
<rect x="420" y="90" width="11" height="11" rx="2" fill="#065f46" />
<rect x="435" y="0" width="11" height="11" rx="2" fill="#022c22" />
<rect x="435" y="15" width="11" height="11" rx="2" fill="#065f46" />
<rect x="435" y="30" width="11" height="11" rx="2" fill="#022c22" />
<rect x="435" y="45" width="11" height="11" rx="2" fill="#022c22" />
<rect x="435" y="60" width="11" height="11" rx="2" fill="#065f46" />
<rect x="435" y="75" width="11" height="11" rx="2" fill="#022c22" />
<rect x="435" y="90" width="11" height="11" rx="2" fill="#022c22" />
<rect x="450" y="0" width="11" height="11" rx="2" fill="#065f46" />
<rect x="450" y="15" width="11" height="11" rx="2" fill="#022c22" />
<rect x="450" y="30" width="11" height="11" rx="2" fill="#022c22" />
<rect x="450" y="45" width="11" height="11" rx="2" fill="#022c22" />
<rect x="450" y="60" width="11" height="11" rx="2" fill="#022c22" />
<rect x="450" y="75" width="11" height="11" rx="2" fill="#022c22" />
<rect x="450" y="90" width="11" height="11" rx="2" fill="#022c22" />
<rect x="465" y="0" width="11" height="11" rx="2" fill="#022c22" />
<rect x="465" y="15" width="11" height="11" rx="2" fill="#022c22" />
<rect x="465" y="30" width="11" height="11" rx="2" fill="#022c22" />
<rect x="465" y="45" width="11" height="11" rx="2" fill="#022c22" />
<rect x="465" y="60" width="11" height="11" rx="2" fill="#022c22" />
<rect x="465" y="75" width="11" height="11" rx="2" fill="#022c22" />
<rect x="465" y="90" width="11" height="11" rx="2" fill="#022c22" />
<rect x="480" y="0" width="11" height="11" rx="2" fill="#022c22" />
<rect x="480" y="15" width="11" height="11" rx="2" fill="#10b981" />
<rect x="480" y="30" width="11" height="11" rx="2" fill="#022c22" />
<rect x="480" y="45" width="11" height="11" rx="2" fill="#022c22" />
<rect x="480" y="60" width="11" height="11" rx="2" fill="#022c22" />
<rect x="480" y="75" width="11" height="11" rx="2" fill="#022c22" />
<rect x="480" y="90" width="11" height="11" rx="2" fill="#022c22" />
<rect x="495" y="0" width="11" height="11" rx="2" fill="#022c22" />
<rect x="495" y="15" width="11" height="11" rx="2" fill="#022c22" />
<rect x="495" y="30" width="11" height="11" rx="2" fill="#022c22" />
<rect x="495" y="45" width="11" height="11" rx="2" fill="#022c22" />
<rect x="495" y="60" width="11" height="11" rx="2" fill="#022c22" />
<rect x="495" y="75" width="11" height="11" rx="2" fill="#022c22" />
<rect x="495" y="90" width="11" height="11" rx="2" fill="#022c22" />
<rect x="510" y="0" width="11" height="11" rx="2" fill="#022c22" />
<rect x="510" y="15" width="11" height="11" rx="2" fill="#10b981" />
<rect x="510" y="30" width="11" height="11" rx="2" fill="#10b981" />
<rect x="510" y="45" width="11" height="11" rx="2" fill="#065f46" />
<rect x="510" y="60" width="11" height="11" rx="2" fill="#10b981" />
<rect x="510" y="75" width="11" height="11" rx="2" fill="#022c22" />
<rect x="510" y="90" width="11" height="11" rx="2" fill="#00FFC6" />
<rect x="525" y="0" width="11" height="11" rx="2" fill="#10b981" />
<rect x="525" y="15" width="11" height="11" rx="2" fill="#10b981" />
<rect x="525" y="30" width="11" height="11" rx="2" fill="#022c22" />
<rect x="525" y="45" width="11" height="11" rx="2" fill="#022c22" />
<rect x="525" y="60" width="11" height="11" rx="2" fill="#00FFC6" />
<rect x="525" y="75" width="11" height="11" rx="2" fill="#10b981" />
<rect x="525" y="90" width="11" height="11" rx="2" fill="#00FFC6" />
<rect x="540" y="0" width="11" height="11" rx="2" fill="#065f46" />
<rect x="540" y="15" width="11" height="11" rx="2" fill="#065f46" />
<rect x="540" y="30" width="11" height="11" rx="2" fill="#00FFC6" />
<rect x="540" y="45" width="11" height="11" rx="2" fill="#00FFC6" />
<rect x="540" y="60" width="11" height="11" rx="2" fill="#00FFC6" />
<rect x="540" y="75" width="11" height="11" rx="2" fill="#065f46" />
<rect x="540" y="90" width="11" height="11" rx="2" fill="#00FFC6" />
<rect x="555" y="0" width="11" height="11" rx="2" fill="#00FFC6" />
<rect x="555" y="15" width="11" height="11" rx="2" fill="#00FFC6" />
<rect x="555" y="30" width="11" height="11" rx="2" fill="#00FFC6" />
<rect x="555" y="45" width="11" height="11" rx="2" fill="#00FFC6" />
<rect x="555" y="60" width="11" height="11" rx="2" fill="#00FFC6" />
<rect x="555" y="75" width="11" height="11" rx="2" fill="#065f46" />
<rect x="555" y="90" width="11" height="11" rx="2" fill="#00FFC6" />
<rect x="570" y="0" width="11" height="11" rx="2" fill="#00FFC6" />
<rect x="570" y="15" width="11" height="11" rx="2" fill="#00FFC6" />
<rect x="570" y="30" width="11" height="11" rx="2" fill="#00FFC6" />
<rect x="570" y="45" width="11" height="11" rx="2" fill="#00FFC6" />
<rect x="570" y="60" width="11" height="11" rx="2" fill="#00FFC6" />
<rect x="570" y="75" width="11" height="11" rx="2" fill="#00FFC6" />
<rect x="570" y="90" width="11" height="11" rx="2" fill="#00FFC6" />
<rect x="585" y="0" width="11" height="11" rx="2" fill="#00FFC6" />
<rect x="585" y="15" width="11" height="11" rx="2" fill="#00FFC6" />
<rect x="585" y="30" width="11" height="11" rx="2" fill="#00FFC6" />
<rect x="585" y="45" width="11" height="11" rx="2" fill="#00FFC6" />
<rect x="585" y="60" width="11" height="11" rx="2" fill="#065f46" />
<rect x="585" y="75" width="11" height="11" rx="2" fill="#00FFC6" />
<rect x="585" y="90" width="11" height="11" rx="2" fill="#00FFC6" />
<rect x="600" y="0" width="11" height="11" rx="2" fill="#065f46" />
<rect x="600" y="15" width="11" height="11" rx="2" fill="#00FFC6" />
<rect x="600" y="30" width="11" height="11" rx="2" fill="#00FFC6" />
<rect x="600" y="45" width="11" height="11" rx="2" fill="#00FFC6" />
<rect x="600" y="60" width="11" height="11" rx="2" fill="#10b981" />
<rect x="600" y="75" width="11" height="11" rx="2" fill="#065f46" />
<rect x="600" y="90" width="11" height="11" rx="2" fill="#00FFC6" />
<rect x="615" y="0" width="11" height="11" rx="2" fill="#10b981" />
<rect x="615" y="15" width="11" height="11" rx="2" fill="#065f46" />
<rect x="615" y="30" width="11" height="11" rx="2" fill="#00FFC6" />
<rect x="615" y="45" width="11" height="11" rx="2" fill="#00FFC6" />
<rect x="615" y="60" width="11" height="11" rx="2" fill="#10b981" />
<rect x="615" y="75" width="11" height="11" rx="2" fill="#10b981" />
<rect x="615" y="90" width="11" height="11" rx="2" fill="#00FFC6" />
<rect x="630" y="0" width="11" height="11" rx="2" fill="#10b981" />
<rect x="630" y="15" width="11" height="11" rx="2" fill="#00FFC6" />
<rect x="630" y="30" width="11" height="11" rx="2" fill="#00FFC6" />
<rect x="630" y="45" width="11" height="11" rx="2" fill="#10b981" />
<rect x="630" y="60" width="11" height="11" rx="2" fill="#10b981" />
<rect x="630" y="75" width="11" height="11" rx="2" fill="#00FFC6" />
<rect x="630" y="90" width="11" height="11" rx="2" fill="#065f46" />
<rect x="645" y="0" width="11" height="11" rx="2" fill="#00FFC6" />
<rect x="645" y="15" width="11" height="11" rx="2" fill="#10b981" />
<rect x="645" y="30" width="11" height="11" rx="2" fill="#00FFC6" />
<rect x="645" y="45" width="11" height="11" rx="2" fill="#065f46" />
<rect x="645" y="60" width="11" height="11" rx="2" fill="#00FFC6" />
<rect x="645" y="75" width="11" height="11" rx="2" fill="#10b981" />
<rect x="645" y="90" width="11" height="11" rx="2" fill="#10b981" />
<rect x="660" y="0" width="11" height="11" rx="2" fill="#10b981" />
<rect x="660" y="15" width="11" height="11" rx="2" fill="#065f46" />
<rect x="660" y="30" width="11" height="11" rx="2" fill="#00FFC6" />
<rect x="660" y="45" width="11" height="11" rx="2" fill="#10b981" />
<rect x="660" y="60" width="11" height="11" rx="2" fill="#10b981" />
<rect x="660" y="75" width="11" height="11" rx="2" fill="#00FFC6" />
<rect x="660" y="90" width="11" height="11" rx="2" fill="#10b981" />
<rect x="675" y="0" width="11" height="11" rx="2" fill="#065f46" />
<rect x="675" y="15" width="11" height="11" rx="2" fill="#00FFC6" />
<rect x="675" y="30" width="11" height="11" rx="2" fill="#065f46" />
<rect x="675" y="45" width="11" height="11" rx="2" fill="#10b981" />
<rect x="675" y="60" width="11" height="11" rx="2" fill="#10b981" />
<rect x="675" y="75" width="11" height="11" rx="2" fill="#10b981" />
<rect x="675" y="90" width="11" height="11" rx="2" fill="#065f46" />
<rect x="690" y="0" width="11" height="11" rx="2" fill="#065f46" />
<rect x="690" y="15" width="11" height="11" rx="2" fill="#10b981" />
<rect x="690" y="30" width="11" height="11" rx="2" fill="#065f46" />
<rect x="690" y="45" width="11" height="11" rx="2" fill="#065f46" />
<rect x="690" y="60" width="11" height="11" rx="2" fill="#065f46" />
<rect x="690" y="75" width="11" height="11" rx="2" fill="#10b981" />
<rect x="690" y="90" width="11" height="11" rx="2" fill="#022c22" />
<rect x="705" y="0" width="11" height="11" rx="2" fill="#10b981" />
<rect x="705" y="15" width="11" height="11" rx="2" fill="#065f46" />
<rect x="705" y="30" width="11" height="11" rx="2" fill="#10b981" />
<rect x="705" y="45" width="11" height="11" rx="2" fill="#10b981" />
<rect x="705" y="60" width="11" height="11" rx="2" fill="#065f46" />
<rect x="705" y="75" width="11" height="11" rx="2" fill="#065f46" />
<rect x="705" y="90" width="11" height="11" rx="2" fill="#065f46" />
<rect x="720" y="0" width="11" height="11" rx="2" fill="#065f46" />
<rect x="720" y="15" width="11" height="11" rx="2" fill="#022c22" />
<rect x="720" y="30" width="11" height="11" rx="2" fill="#065f46" />
<rect x="720" y="45" width="11" height="11" rx="2" fill="#022c22" />
<rect x="720" y="60" width="11" height="11" rx="2" fill="#10b981" />
<rect x="720" y="75" width="11" height="11" rx="2" fill="#10b981" />
<rect x="720" y="90" width="11" height="11" rx="2" fill="#10b981" />
<rect x="735" y="0" width="11" height="11" rx="2" fill="#065f46" />
<rect x="735" y="15" width="11" height="11" rx="2" fill="#00FFC6" />
<rect x="735" y="30" width="11" height="11" rx="2" fill="#10b981" />
<rect x="735" y="45" width="11" height="11" rx="2" fill="#10b981" />
<rect x="735" y="60" width="11" height="11" rx="2" fill="#00FFC6" />
<rect x="735" y="75" width="11" height="11" rx="2" fill="#065f46" />
<rect x="735" y="90" width="11" height="11" rx="2" fill="#022c22" />
<rect x="750" y="0" width="11" height="11" rx="2" fill="#065f46" />
<rect x="750" y="15" width="11" height="11" rx="2" fill="#10b981" />
<rect x="750" y="30" width="11" height="11" rx="2" fill="#065f46" />
<rect x="750" y="45" width="11" height="11" rx="2" fill="#065f46" />
<rect x="750" y="60" width="11" height="11" rx="2" fill="#022c22" />
<rect x="750" y="75" width="11" height="11" rx="2" fill="#065f46" />
<rect x="750" y="90" width="11" height="11" rx="2" fill="#022c22" />
<rect x="765" y="0" width="11" height="11" rx="2" fill="#10b981" />
<rect x="765" y="15" width="11" height="11" rx="2" fill="#10b981" />
<rect x="765" y="30" width="11" height="11" rx="2" fill="#065f46" />
<rect x="765" y="45" width="11" height="11" rx="2" fill="#065f46" />
<rect x="765" y="60" width="11" height="11" rx="2" fill="#00FFC6" />
<rect x="765" y="75" width="11" height="11" rx="2" fill="#00FFC6" />
<rect x="765" y="90" width="11" height="11" rx="2" fill="#10b981" />

</g>

</svg>
